<mxfile host="app.diagrams.net" agent="Mozilla/5.0 (Macintosh; Intel Mac OS X 10_15_7) AppleWebKit/605.1.15 (KHTML, like Gecko) Version/17.1 Safari/605.1.15" version="24.7.5">
  <diagram name="ページ1" id="CIuyttM8b5bCj44eCqXV">
    <mxGraphModel dx="876" dy="473" grid="1" gridSize="10" guides="1" tooltips="1" connect="1" arrows="1" fold="1" page="1" pageScale="1" pageWidth="827" pageHeight="1169" math="0" shadow="0">
      <root>
        <mxCell id="0" />
        <mxCell id="1" parent="0" />
        <mxCell id="5hUDQQry_mjtpb-gvesq-45" value="" style="rounded=0;whiteSpace=wrap;html=1;fillColor=default;" vertex="1" parent="1">
          <mxGeometry y="140" width="690" height="330" as="geometry" />
        </mxCell>
        <mxCell id="5hUDQQry_mjtpb-gvesq-18" value="" style="rounded=0;whiteSpace=wrap;html=1;align=center;fillColor=default;strokeColor=default;" vertex="1" parent="1">
          <mxGeometry x="120" y="350" width="120" height="60" as="geometry" />
        </mxCell>
        <mxCell id="5hUDQQry_mjtpb-gvesq-1" value="" style="rounded=0;whiteSpace=wrap;html=1;strokeColor=default;" vertex="1" parent="1">
          <mxGeometry x="520" y="350" width="120" height="60" as="geometry" />
        </mxCell>
        <mxCell id="5hUDQQry_mjtpb-gvesq-10" style="edgeStyle=orthogonalEdgeStyle;rounded=0;orthogonalLoop=1;jettySize=auto;html=1;" edge="1" parent="1" source="5hUDQQry_mjtpb-gvesq-5" target="5hUDQQry_mjtpb-gvesq-11">
          <mxGeometry relative="1" as="geometry">
            <mxPoint x="380" y="340" as="targetPoint" />
            <Array as="points">
              <mxPoint x="400" y="310" />
              <mxPoint x="400" y="310" />
            </Array>
          </mxGeometry>
        </mxCell>
        <mxCell id="5hUDQQry_mjtpb-gvesq-5" value="" style="strokeColor=#dddddd;shadow=1;strokeWidth=1;rounded=1;absoluteArcSize=1;arcSize=2;" vertex="1" parent="1">
          <mxGeometry x="315" y="230" width="130" height="60" as="geometry" />
        </mxCell>
        <mxCell id="5hUDQQry_mjtpb-gvesq-6" value="NestJS&lt;div&gt;Rest API&lt;/div&gt;" style="editableCssRules=.*;html=1;fontColor=#999999;shape=image;verticalLabelPosition=middle;verticalAlign=middle;labelPosition=right;align=left;spacingLeft=20;part=1;points=[];imageAspect=0;image=data:image/svg+xml,PHN2ZyB4bWxucz0iaHR0cDovL3d3dy53My5vcmcvMjAwMC9zdmciIHhtbG5zOnY9Imh0dHBzOi8vdmVjdGEuaW8vbmFubyIgd2lkdGg9IjM2NS40NjQ5OTY3NzA0MjQ5MyIgaGVpZ2h0PSIzNzkuMjIyOTk0NDYzNTc3OTUiIHZpZXdCb3g9IjAgMCA5Ni42OTU5OTkxNDU1MDc4MSAxMDAuMzM1OTk4NTM1MTU2MjUiPiYjeGE7PHN0eWxlIHR5cGU9InRleHQvY3NzIj4mI3hhOwkuc3Qwe2ZpbGw6IzQyODVmNDt9JiN4YTsJLnN0MXtmaWxsOiNhZWNiZmE7fSYjeGE7PC9zdHlsZT4mI3hhOwk8cGF0aCBjbGFzcz0ic3QwIiBkPSJNMjkuNzk0IDEwMC4zMzZMNDYuOTIgNTAuMTY4aDQ5Ljc3NnpNMCA5OS42NzFsMTIuOTc2LTQ5LjUwMkgyOS4yMkwxNi44OTcgOTIuMDU0eiIvPiYjeGE7CTxwYXRoIGNsYXNzPSJzdDEiIGQ9Ik0yOS43OTQgMEw0Ni45MiA1MC4xNjhoNDkuNzc2ek0wIC42NjZsMTIuOTc2IDQ5LjUwMkgyOS4yMkwxNi44OTcgOC4yODN6Ii8+JiN4YTs8L3N2Zz4=;" vertex="1" parent="5hUDQQry_mjtpb-gvesq-5">
          <mxGeometry width="30" height="30" relative="1" as="geometry">
            <mxPoint x="15" y="15" as="offset" />
          </mxGeometry>
        </mxCell>
        <mxCell id="5hUDQQry_mjtpb-gvesq-13" value="" style="edgeStyle=orthogonalEdgeStyle;rounded=0;orthogonalLoop=1;jettySize=auto;html=1;" edge="1" parent="1" source="5hUDQQry_mjtpb-gvesq-11" target="5hUDQQry_mjtpb-gvesq-5">
          <mxGeometry relative="1" as="geometry">
            <mxPoint x="360" y="300" as="targetPoint" />
            <Array as="points">
              <mxPoint x="360" y="330" />
              <mxPoint x="360" y="330" />
            </Array>
          </mxGeometry>
        </mxCell>
        <mxCell id="5hUDQQry_mjtpb-gvesq-11" value="" style="strokeColor=#dddddd;shadow=1;strokeWidth=1;rounded=1;absoluteArcSize=1;arcSize=2;" vertex="1" parent="1">
          <mxGeometry x="315" y="350" width="130" height="60" as="geometry" />
        </mxCell>
        <mxCell id="5hUDQQry_mjtpb-gvesq-12" value="Hasura&lt;div&gt;Server&lt;/div&gt;" style="editableCssRules=.*;html=1;fontColor=#999999;shape=image;verticalLabelPosition=middle;verticalAlign=middle;labelPosition=right;align=left;spacingLeft=20;part=1;points=[];imageAspect=0;image=data:image/svg+xml,PHN2ZyB4bWxucz0iaHR0cDovL3d3dy53My5vcmcvMjAwMC9zdmciIHhtbG5zOnY9Imh0dHBzOi8vdmVjdGEuaW8vbmFubyIgd2lkdGg9IjM2NS40NjQ5OTY3NzA0MjQ5MyIgaGVpZ2h0PSIzNzkuMjIyOTk0NDYzNTc3OTUiIHZpZXdCb3g9IjAgMCA5Ni42OTU5OTkxNDU1MDc4MSAxMDAuMzM1OTk4NTM1MTU2MjUiPiYjeGE7PHN0eWxlIHR5cGU9InRleHQvY3NzIj4mI3hhOwkuc3Qwe2ZpbGw6IzQyODVmNDt9JiN4YTsJLnN0MXtmaWxsOiNhZWNiZmE7fSYjeGE7PC9zdHlsZT4mI3hhOwk8cGF0aCBjbGFzcz0ic3QwIiBkPSJNMjkuNzk0IDEwMC4zMzZMNDYuOTIgNTAuMTY4aDQ5Ljc3NnpNMCA5OS42NzFsMTIuOTc2LTQ5LjUwMkgyOS4yMkwxNi44OTcgOTIuMDU0eiIvPiYjeGE7CTxwYXRoIGNsYXNzPSJzdDEiIGQ9Ik0yOS43OTQgMEw0Ni45MiA1MC4xNjhoNDkuNzc2ek0wIC42NjZsMTIuOTc2IDQ5LjUwMkgyOS4yMkwxNi44OTcgOC4yODN6Ii8+JiN4YTs8L3N2Zz4=;" vertex="1" parent="5hUDQQry_mjtpb-gvesq-11">
          <mxGeometry width="30" height="30" relative="1" as="geometry">
            <mxPoint x="15" y="15" as="offset" />
          </mxGeometry>
        </mxCell>
        <mxCell id="5hUDQQry_mjtpb-gvesq-31" value="" style="edgeStyle=orthogonalEdgeStyle;rounded=0;orthogonalLoop=1;jettySize=auto;html=1;entryX=0;entryY=0.25;entryDx=0;entryDy=0;exitX=1;exitY=0.25;exitDx=0;exitDy=0;" edge="1" parent="1">
          <mxGeometry relative="1" as="geometry">
            <mxPoint x="445" y="370" as="sourcePoint" />
            <mxPoint x="520" y="370" as="targetPoint" />
            <Array as="points">
              <mxPoint x="450" y="370" />
              <mxPoint x="450" y="370" />
            </Array>
          </mxGeometry>
        </mxCell>
        <mxCell id="5hUDQQry_mjtpb-gvesq-32" value="" style="edgeStyle=orthogonalEdgeStyle;rounded=0;orthogonalLoop=1;jettySize=auto;html=1;entryX=0;entryY=0.25;entryDx=0;entryDy=0;exitX=1;exitY=0.25;exitDx=0;exitDy=0;" edge="1" parent="1">
          <mxGeometry relative="1" as="geometry">
            <mxPoint x="520" y="390" as="sourcePoint" />
            <mxPoint x="445" y="390" as="targetPoint" />
            <Array as="points">
              <mxPoint x="450" y="390" />
              <mxPoint x="450" y="390" />
            </Array>
          </mxGeometry>
        </mxCell>
        <mxCell id="5hUDQQry_mjtpb-gvesq-33" value="" style="edgeStyle=orthogonalEdgeStyle;rounded=0;orthogonalLoop=1;jettySize=auto;html=1;entryX=0;entryY=0.25;entryDx=0;entryDy=0;exitX=1;exitY=0.25;exitDx=0;exitDy=0;" edge="1" parent="1">
          <mxGeometry relative="1" as="geometry">
            <mxPoint x="240" y="370" as="sourcePoint" />
            <mxPoint x="315" y="370" as="targetPoint" />
            <Array as="points">
              <mxPoint x="245" y="370" />
              <mxPoint x="245" y="370" />
            </Array>
          </mxGeometry>
        </mxCell>
        <mxCell id="5hUDQQry_mjtpb-gvesq-34" value="" style="edgeStyle=orthogonalEdgeStyle;rounded=0;orthogonalLoop=1;jettySize=auto;html=1;entryX=0;entryY=0.25;entryDx=0;entryDy=0;exitX=1;exitY=0.25;exitDx=0;exitDy=0;" edge="1" parent="1">
          <mxGeometry relative="1" as="geometry">
            <mxPoint x="315" y="390" as="sourcePoint" />
            <mxPoint x="240" y="390" as="targetPoint" />
            <Array as="points">
              <mxPoint x="245" y="390" />
              <mxPoint x="245" y="390" />
            </Array>
          </mxGeometry>
        </mxCell>
        <mxCell id="5hUDQQry_mjtpb-gvesq-36" value="" style="shape=image;verticalLabelPosition=bottom;labelBackgroundColor=default;verticalAlign=top;aspect=fixed;imageAspect=0;image=data:image/png,iVBORw0KGgoAAAANSUhEUgAAAycAAACACAYAAAARWBZiAAAACXBIWXMAAAsTAAALEwEAmpwYAAAAAXNSR0IArs4c6QAAAARnQU1BAACxjwv8YQUAADwWSURBVHgB7Z17kFxXfed/PTMaPTySRn5ALJz4yjYmsWw8imEXMKxazpqqzQIapVBKsk08oioBktrSqMobqPyBeoBNtlIGjWpTCX9QaBQsy7uionHtFhBI0AhMEQK2xvgRbOzStddYa/zQ2Hp4NK/e37fnXPmq1X3vuX2f0/P9qK5mpvt29+17zz3n9z2/3/n9RAghhBBCCCGEJMvxPul75ibpF0IIIYQQQsiCo0PahOPr5e65WTlSqsq+p9dLnxBCCCGEEEIWFG0hTp69UXbPlWREqtKrf/Z2dshh9aI4QgghhBBCCFkwlGSBA2GiPyoXPVESt6NTNqwblwkhhBBCCCGEFJ4F7Tk5fpPskUbCBFTFmZuRfUIIIYQQQghZECxYcfLsTbJvriqDIbv1PzsvYAghhBBCCCEFZ0GKk1ooV1UGrHZWAfPs+lARQwghhBBCCMmZBbfmpOkakxBUhW1a97iMCSGEEEIIIaSQLChx0qowMUx0dNUWyLtCCCGEEEIIKRwLRpyguGKpKoclDszgRQghhBBCSGFZEGtOULNEVVT8zFtVcaozMQUOIYQQQgghJBUKL04gTFD53RRYjE1VpMwMXoQQQgghhBSPwosTFSbIzOVIklRl8Pj8+hVCCCGEEEJIQSj0mpOYC+BDqZZky3WPyagQQgghhBBCcqew4qQWzjUjxyVdmMGLEEIIIYSQglDYsK7aOpP06cXnQAgJIYQQQgghJFcKKU5MBXhHsqBa89AwgxchhBBCCCE5U7iwrozCuS6mJMPXPia7hBBCCCGEEJILhfOcqDDJJ80vM3gRQgghhBCSK4XynDxzkwyUqgkUW4wBM3gRQgghhBCSD4USJ8/eJMczW2vSHGbwIoQQQgghJAcKE9YFr0kBhAlgBi9CCCGEEEJyoDDiRF04xVnvwQxehBBCCCGEZE4hxEmBvCZ++p69KafF+YQQQgghhCxCCiFOCuU18VOVwWfXy6AQQgghhBBCUid3cVJQr8lblGTP8RulLIQQQgghhJBUyV2cFNZr4mNO5DAXyBNCCCGEEJIuuYqTX8IjUWSvyVt4Gbx6hRBCCCGEEJIKuYqTjpLcLQsFFVFVZvAihBBCCCEkNXIrwogwqbkZOS4LjZIMX/uY7BJCCCGEEEJIonRJTszOSrlQ5eltqcrg8fUyvu4J2S9k0bJt2zanq6vLmZubm7j//vvHhRBCCCGExCY3ffDMjXJEP7wsC5OJ2apsuv4JoVEakYGBgd7JycnCrt1ZtmzZxMjIyESj53DsU1NTO0ul0mC1WvV/B1e3ERUpQ0JSB8LQZr8HHnjAFUIIIYsSjNkzMzN9+P2+++4bE7JgyMVzYkK6yrJw6e3sqGXw2rRuvGaYEkvUuB/s6OgobIY2Pb4d+mOk/nHt5Bx97oj+6qgwqX/a0a1yxx13DHR3d29SceMKSQ1tP7bhoAvSOUtI0mj/1af9V1+z57XfGm02KZMld911V796o5tOXukE0IgQEgLa+/T09B5t82XvMR2fRScWh5csWTJUhLZOgslFnCzYkC4/1ZrAwgL5DULaGr8wCdm1tp/uv4GdHyGkKGi/1C8Baft1dtnVH2OSMzrxs1OCIypGhJAAjDA5UhfdUEMfG4Rg0X02cYwuNrlk61Jhslnag75nb5I9Qtoa7egwqDuWu0OgDAohhBBCMsNMJB5uJEx8wIu4T0ihySeVcLWNKq5XZfDZ9UJjtE1BzKp2dAMSjZ1CCCGEkMw4d+4cPISOxa79tmsXST5kLk5qhRelzYoZlmTP0+ulT0jb4S2mi0gvOz5CCCEkOzo6OqyjcnTfspDCkrk46ai2pxFvFsg7QtqNloQ00gwLIYQQQgiJROYL4qsl2dyWKXTmK8gjjnGTkHaipUVzqH8ihBBCyCIGodHT09OHA3YZP3DgQCKFrXXcfa5UsrMw1XPCMbrAZC5OtNm0bfhTVaSMBfKsIN8+qAdkfGpqSiLCwoyEEEIWPahrFhRCZSsmbOjs7BxRgXK3xa7ufffdNyqksGQa1nW8ryZM2mu9ST1VGXzmJukX0hYg3aB2nmMSDXZ6hBBCSIag0KLNeF2tVvcKKTSZek5mZ8VZDFXRSlXZp0JsnAUaY+FKDnn3dYbHrX9sdnZ2h87IHAtJT+jh6swNK8UTQgghGbNkyZItps5JsyidoYMHDw4LKTSZipNSmy6Gb0Av15/EQ2c/3AMHDuyQAvDAAw+4d9xxxy49pj0hAgXCZBP2F0IIIYRkiimuuEHH7AEds+/WMdsxT43p5ON+eFeEFJ5s15yU5GYszFgM1Naf3CiVax+XipAFz/333z+ybds2uIwr6PD8z+nfE9oBjsJjQmFCCCGE5AvGbP0xImRBkqk4qValdzGEdfnY/fR6Gb3+CeHi6DbACI+B/v7+wZ6entr6KRUk7pkzZ9zR0VFm/iCEEEIIiUm2YV0lcRaL58Sjs1QL79ogpG0wQmRMCCGEEEJIomRbhLG6KIsU9iG8SwghhBBCCCGBtOw5qR6TXplskBZ4mUyUNlxcuA7V0+dmZLGyU7//CLN3EUIIIYQQ0pxQcVITIaelT0q1DQva+2oekDNN6pWc0dc8VPsN6ywm1DczLjNy9NcHRU7/UBYrzN5FCCGEEEJICIHipPojGVBhskdFybwQ8daL2K1qn08bPCdlFSiDb/uYWuhXiLx5QuTUL0WmXpFFBbJ3Hb9Ryuse51oFQgghhBBCGhHsOanK7vPCJAG6L5vfVt8oMnNK5OQj82IFvy8GVKDsFi6kJimwbds2p1Qq9elWu1+r1epEZ2fnRFdX17jJ+57452Dz1X1x0/rMtBkYGOidmppyRM7XYXJMeugJFOXU7+Pq93GlQOA66HE5c3Nzjnmo9tN/3PrcxP3331+YTIFhbQe1jYp0vKBR2zA/Xfxn2seCau8kHLRVvbZlbZM3mzoZja4/2iyu+7jea0eXLl06XoR+Aseu/XC/HvfNenyOr87H+X5NpBZ67+r2qH7PMbbh9DB9SL9pS2V9yN//uVLAdoRjnpmZ6dNj3Nys/aO/Nv32Ud3Gk64f09QHUvOaVGuhSMmAU/9s46dOPT0vVBaDSOkQ2bSYvSd33HFHReZFWiDa2McOHDjAMLgA7rrrrjI6D/11IKQ45LgOQLta6TzQSU1PT+P9N+o1KYd8zgWfiQ5Lt8SLXmkbssr5p4Zu0/7NGB93m+9UlnDQGY/p4PHgwYMHRyVjYlwHULsWWR+7/xzrn30R2w5qCj2YR8E0774y7cKqcLAx+sb01we7u7vHiiZmw/pdvU6bilCc7s477zwSdD8G3dNx0XOEa13rT0VaTt5T6/OWLFkymmUbMAbwTol37OgbHjT1QaJ8tqOfPRCwC+77nQHPu7rtF0v0/hoOE1KmvTdE29e4bT+4ffv2QW/CL+r7oB/RPndnC/11zf7R1+yPei3iYvo+9BN9UY9ZzBipbX8oqO2jOKY0aaP+c9rcc1INNyAjMdv8qZXXz28QKK8/JjI3JW0LvScLE+2kRuqLLzZhSDuUStAOxmg7LuHsaNQ56WDQp4bqHu34ymJHn9l3zHJ/7zN26tbvdVL6UyKAzg3bgHZGrv49ooPK/ryNNq/z9QygCN8JM5CoOOx9n6EsBg7veHXwL3uPRbwOoHYtcOxq/GFQHw0bQOIQ4xx7eG1nMKtz7Rl3eo4G9V6JHC1g7pF+bPo+MLJH0hDmJHnq22tMam1X28AetIE07zMAYaB99O4QcWBLrf3qPQcbxfqe0xl2RySWvehEef3k5OSIiIR5eZq+n96XIzIvxELRfSGqnCjvY67JPm98bqH/E9MWy7gWOm5uSnvc9O6BCDZFI2pjJNpiUNuHHdXsXvOf04aphGtek9bVd8us+V2Rq/5gXqi0K97aEyEkIjCg9Kbfozf/sYQG0rDPCPPI2OLoVtH3PGIGvixw/X9430s73yMJnDtHt336XY6bWaDEwWCB90/oeM+D62kGkON6PvZhIJWEgKDFzHfCx+xIyuca76vGBCYLKgm1d5znAZyHpM8xSQ7TJ+xL+h7z8O6ztPo8fV9MHtX6aUkWR8w9x7YbDd81KUsyOGm2IdwDOtYcTmGcGTDj/YC0SOM6J1WxmSFOha6VIldsFLns/Xpw3dKWVEWyMtBIm2Bc5+hABiUl1DvUDyMtxc9wdKtkMeghHtb73Zy7Yyl8L0e3fUkaoP7BQlKeIPINIFahS0FgUE5TNMtb5/pIgufawfvhfZMSJfWkbaCS1oD4N33dgKRP4n0e+hz9MZxWuzXU+k39rNzswYWCEbroS9K6JpWk+xBMJuH66ljTL+ngyLzIbem4LxIn1R/X3rAsSdMZae/aonl4USBW2o2a96RP0uxUSBvhCROxjH9vBXgV1KA/nPJg51Eb9CCGJGV8586RlPCM/LjGRwaDRSMc3WIZIJ6hJBkA8ZPEuTbGaZpiqp4K7jEYMUJyBcaSmSnO8lrUZsCxhkFigvstI1EF4GkdobhujgkJPZJBX1JJov0AfZ+7MdZINhFSFTNGROJiz8lcSrP6EcUJgDCBQFnhSNsxNyOpzYCT9kI7kcOSUifizfik6ZFpAjKWHE5r0NPv42YhTHw4cbwQZo1PVsd6ETBAWhEoMLgzNJQ8nDgCBQNzDsYpzvGgOW4KlJwwRlJFckL7vD1x+jy8Nof7DVToQWlM2hOHfkz7ifVZ6P/M2o7MQJvFWBHlNReLk2qx1kMgtOs3bldPyk3SbnjZK0p64WqbmOxp/t/J4sYMZKl1fBnN+ASRyqCH7ElYKCrZGvuObpGNZk+YZG0s1wOBAo+C7f4I5cpB1Ho4rRj6eQzMdeBaHxaSOa0IaZM1bldHR8cW/XODitp12JDdDI/p++1FJjyJRkshOiZ+v2Kzr0lNO6LbDt02nD17dg0yneGnd/z4Xvh+Yol+12GuQbmQsPG5/jp47Qe/4xroz6Eo18AQ2QvhgbEmav9nMoftjXsPYKyI4vm5IFtX9Yc1YeJIGiyVWFz2vnmhcvJhWeCUVP8he0Op9/H1nbfd+MTMD/TCdohPjLzzne+U6667TlavXj13zTXXzK1fv766e/fuWsoH3Td66geyIDF50VML8TGDdSYzPkFg0NNO/tEka1zkaDT3GqN5g03dAJPZJXdh4qGDzj6bYzdeqby9vzgGDNRbbHY2qT1HJGcwGYB778CBA7uEZILxOFi1V5MWeq8a8sOjo6PN7gPX/BzFf6aGT8UyoyPApIyrbcA6ha7YpeCvHfuZM2caHrt5zKtxMqbbcIRjRzpz3G+b/A+iDpTehyNBr5P5TGDNcCVCJslly5aF9qsZUZbmmbwCr4OPMfwXsf30Qai2mPLZamIkrXtAn7MW5fWphNOLdW4hrKseZPNCLRTURVlIVGtbSebwR89qWf7esnStdeRt/3HL8HTfB5BjfrVuv+V/jQ6iz8/Ozj6vDWRiZmbm5ydOnPjBk08+CePt5NatW2cPHTo053t70oakaWBHGaz9mFmUo9peUTejVuhPf+/FBqGjf2NmZqNEm+TA4HXY1qBPCdfMcqFTdiTeJI1jZsdD6/SYFKCRhYmZbXsQC/+1fxifnJysnTcduHtNccay/olBwpFoeKKjErSTOW5HWjhmPb+oFzPxwAMPuF4xSSOSN7fgxeuH6AhL2WsG5sgzjmgTeqz7zcwg2nztPOOY9Uev9tFlbfsbo4p83Ht63A8y1XD6mLVtFcvdhywMyotAW9YfA9qeK7ZGpvFEHLVJE2uEtROy27i2xy3mWKzxjl3HBHiJ9gRNlOD+rL/fzPHvaPYakzq/qW2JPkxFWtPXFxhHGoB+Tq/DjijXwXcNhvWnTRg3jPwRiYBtJEErxw/894Be72Yhyr22qZUvFCcl2ShpMS9OcMPHmiFEJq/p0yKTL0rxKZVkRq9DdWWvXHrXTlnx3o1yiQoTH02D1SBWPMHS3d39kRUrVvzFlVdeCaPgIVWz/+ezn/3sg+95z3uerVQqs+3oVYGBGFRIKUlQIXehGgle8TfdnjPGNbjaVAYuN3qNMdQqEgET3jAUcp7OP2dCEKKEVVkZxUnhGZ2dnZ2jp0+fHq83Rvr7+3t7enr6tJMeiDAbeh6ce7iwDx48OBy0H2rimFoetudqRI97KGDg8M+KVoxRs0+iCYmd2kbCCp1Zn5OgtmO+hyvRZ3HPo99vUEJmXlsI8XN1G1KjaSTgedDqzLm1l4q0junrbGLdXd22xPXeegaa3vsofLs7xCPa0BPRCIskGZgoiixM/GAmXvsiFJEM8uSOeAKdXAxqG2mfMSAtgvanfcmmAOPew7GZlPHAeGwZ0og+ryIxMG1wnW3B7WacFyfVIzXREGn2JzLd+hkJFFjEGpQX/qGgFeVVkEAYzuh/S2/ZKO/4s931giQWS5Ys+eDq1as/eMstt/x3CJVXXnnlS+hMpPaR1ar+Lm2CIxmlXNbOFj/GZAFhKRZqM27GwD7/WJSYd2PEoxjkqEQAA50aBqNGBO20fJmNURwLW3e7eW4MW5TZ0LrP2q3fZyTs++Bc6WeMhXyGqwPWjqgi2uwfdaDoDRKKxuBzxI5RHeyswq5AlFlcf+hB0HtGGJi9992v7WMwyuy5/7jFXmhmKsiD0POD5BRFMDpjTV7WYylKx+Ma9vVgUsK04SNhngibSQwT4hu0y1ASxw/jWI8b4Yb7fJ9tE+JD5vu6AYkJrqOO2ztMOvmmGME6JnbY9P2hBaSjYCbebD/7It5aEN+ZwUL4FZIIWHvy9tuLVwcFXQc8JZ0qSq7ad0SckSOJCpN6IFTUm/IdNT5/+eqrr35cPSlLzGJ60qZgoMBCNO0EN9kYqthHB74Br9MxhprtJISrbWuDvj6SMPGAUa6fC+NryPIlvSmvY6h9H5yLqIYnzqFZwOiKPdbfx/sMvTa7fB4wDxhPm+J498z1t70OoKkQMxWhrdDjbmldBQSbnoeGogbC3NwDayyvZZTBETOHA60aYThuXCuxbyc7i5C9yxjQTt5bkmuvIKItRKmbtDDxgKGvn7+pwf18AWYSI/B7m1DTpnR3d7fURzfC3Htj5rgR5rYuap+5CHFb7esagb7eYqH8ZrHARDE4IbslKkw8zHvulRZ4S5yUMkiFlqCYWHqZyJpbpBjorPQswreudOQdX/9+6qKkHoR/XXrppf/zhz/84chjjz32rq1btyawwocUkJpxHTMELYqhtiWh2biK2BvGaRlr4zrztyHO98F5j2h4gkjfBzOouMa+z3D1uDcleB1sBwoHoUqNnrCIfa+BwTXu+RZzvN7sbRRhDiwHZo+9SQzQ+M5oJ2FGqaH33LlzA0ISx3hNgqhdpzSEiQcECsIwQ3azmcRwgp5M2tuMNQcUJZEYSrodITIiZBfHcmzZHfI5Y2kIEw8VzhWJNmbW8IuT9NabeCTs6UChxmVrJVfgLZmeq8rKuwZl3TePZSpK6lm+fPkd69ev/8e//du//WP9k16U9iL2QGrSxDqWuw8lmT0LnV/JLmViGsZabXY0iUE2ouEJInuD8Bl6vtbBi4LPStI4MJ4s12Zf/Y79Eo/YItMMbLXZWxVugy0Ic1sx7ppzkwimnVgJchVcVjOgxB5Lr8lQmsLEAxMOFn1fWOirG/Rk0hM6OC8UJXYY435EEsZ4TwKvQVh4rY756MMD94EQlRSBcEZIskTEX+ckfddyQmFdfpBiOC8gTGZ71silf75HfuNze6RzVe7e+ZoX5fLLL/+7U6dOIfc0EjhToLQHsQdSHaxt10y4acykWMwE1UjaWEt6djSK4WmwXXNzATBq0jCe4IGw2Q9JFSQGCB+MWxfBhAa2NHsbRYy3MniGYdYRuGH7Yd1BMy8VaQ0Lr8l4GgZlM2AAhhiavVFqDNVD71t+6HVtKWzJBiS7CdklMOJJx6mwMX8kC4FuGaZ2AX5xkn5YVwriBOFdeRRoxBLq6Z5e+c1935cr/ijNMPnW6Onp+Yx20P/6s5/97F2VSqVDyEJmJO5Aipm1CIuCoxje1tjMBAFj1Cal9FOZHbWcDfWIZXgkjZ5f2/h0p8nj1h41ZCPKa02FrRjHdUwxW59VHYsEvFTER1hKahWjmdaYQR8UNimgz+8OeO5owEvRfgqxdmkR4mrfkdh6nwY8F/Rk2BotbRfloOcjTrLFwnZy0qNmtFZ/lIEwAVgJkcIidtQ/yXJx/BycEWvXyTXfPCbLfzubU9cKXV1dN23YsOEfb7vttt+mQFm4JNGBzMzMlC13ddOcUdTO1MZY69XjTeLGctMsuhels7VIBZoZMJQsw9JubvRgd3e37etrRuLU1NQxs/YjU2xrpqQ582nb/sKMCGKPtjX0HU7ALm5OqeMDjdigSRmLiRDHFH91hGTJmKRL4ESQtoum4gQTYiHi5cEsvCYetpOTHvOphOekN7Pgn5W6vSqJAmEC70kW1ePnhYkjv/X170v3OxwpOgjzuvXWW799/PjxD2zduvX/HTp0aFbIgiHuomIPU5TPhjFJF6tZ99nZ2b4EjmUszc4Xne2dd945ZmMEIxWoxABGCwSbuY5Xy7yn28uw5H0GFo1PoKiZ91P3P7p06dLx+kJveF5aDOVFqJV+b1zHsuVLHN32ofCnHtOobqkXH4yQ7ngizZlPtD89VxMWWahitY8EgNB2JX+i1qO5CNyPQSn1bcMakwZr+EL6C29SZqz+CWTjUi/knpB21AeBovfZUJYha4sZta8elIJiMean6fFpiJmctApznhcn1QzFyXJJBSyOT1ucQJicq4pcs/cfFoQw8YBA2b59+3f054dVnLwk81FpZAFg6WkIxSJPvrdfvw5uZcmZuMY80PaeyLkLQgeAB21mvaNWEPfAgkZ97U41TPrCDFzzfK+XdhTXW49tUA0WzCbD2wHDaG8SiQ7gNapGr+aORcqD2GCwy7xQxfkbT1qsRPC89eq5OS4pYpket5Z5J6+CjEUpRKvt4u6wtLlhaHvaGPL8mOSECc8qN3u+2aQM2oW2U4iqsLU0jrw1EYCZ6v0LtcDwQkD7f1eKS9gYGnsciAr6GT1nEcRJFovhPdbo9oIkDrwnyNyVVuX4WlYu/e+KP99T6FCuZixZsuTGj33sY593HGeX67rnZP4rFZnxrOKC1ZBxpbgk1YFYNVrPwJWc0UE17k02kcWgrF6JEcsK1L1Y9GzryVHjYieKMmpHntS18LIXDZgq0L02YrUZUbxGjTDtrIwNx+GJFRhvSRjKet6itB9HCoDx9GRuMLQbSOQQ1LaTzEIYFWOcNRUYQZMySAyh98lmy4mO2v2OzXjuIFSO4mee37/dKPK5DLkPJvI4drW1YNdZ7TsvTjoyNEawNgRrT1IILsLakxMpiRN4TS7ZfLe87Y9aSrxTCFatWvXpRx555Lnbb7/9yw8//PC0FBiEqHDGJ5nODzOyavjkLjiiUI1ZjA2z8ZIBZkbTFQsDt6urC0aFG7SPXqs+E75RjiMeQuhL4r11wmML1pNIAsa9X6zAeDNiZRSeqRaLgOYdJhUZHbQdoTiJTZDxnqfXBGgfMA5PZjPCJmXUs7JF2wkqhztiibm34IHtx9+eWNFfEZI0TrHStjjNnshqfKwnQpirydZVzXim9DJJheVXprMwHsJk7sqr5e1/GqV+XTHp7e393F/+5V8yg9fCIJEQj8nJyQUlTAyxjlk7P1eyw6qjD/OCbN++/W4VJkda9UZkDYRZC0UprcDghVlfHUQPI+wKnqQoi32DFooWlQS9ZIsWi0rrr0uO4J4JWhQcZrR5dZYkxj3niRXd9umGZBXH1WDcp/1Pv5C2Ie4EX1qY9Y6h5GOgpnjKVr5LEqWqwgThXJd9ZrcsXUDrTJqhHePqjRs3fvVrX/saa6AUn0TEic7WObLwiNtLPCcZYWvwBA0WJkZ8pKgDSjN8RSnHJD0c3YbNYt8BIaQJFhMxJyVnQowzR0LAPdfd3b1Bf01qYb/jnwiAUGHWr4VNWN2kjCfvLsA2Y5fnOXElS1DvpFNSYdmVkihz1aos37RZLt8yIEnyxhtvyL/8y7/IF77wBfn93/99efe73y2O49Q2/K6Nq/bcd7/7XUmapUuX3vq9733v98rlckpXgRBST7PZfDNjWZEFCoylAwcObEJFe0k345Mj84t9D1sYT/RCkEbk6jkBUdKpNsMUJx3s6OjYIsneczWhohMBFCkkLQrsOYFJnNLQsTxJcVJSr4k6F9Z+zma9qx0QJcPDw/LBD36wJkC+/vWvy5NPPll73L8PhAue+5M/+ZPavnjNCy8kl0lg3bp1n3v66acRBEfvCSkiiXiNig4GfzVWWu5gjKHjmsw85zfJIS0sClPCi4IMc0kYYAH0t2NNBzU0F0WbJ8mBNNgqUtbprzuS9l4akUJvJcmFLskLrDtJuN4JwJqT7stFpl6R2MxW9b3eszGxtMEQGxAZfiFiA0QJXvfNb35TBgcH5eMf/7jEBd6Tf/7nf77td37nd76jf84IaVvUYLQ2evJeMOqRgNs5s5lzhEpa7urWPzA9PR25roOpZ7I3LKtVf39/b09PT59ZILw5i7UsJhvZAD57xYoV/Xqsd6f0uV7RuQ1N0u9atXmzMLQQoqDgaUnbBdt7NTXSCN00dU1GEM6j/QLqvNwt84kv4n6WI/Peyqv1MzKrJk7isWzZsomgxAt5YpsqfF6clHIovoRijCll7Vp6aXxxgrUmU3NV+c2EFsEjRAviJA4QKffcc0/N0/L5z39e4gLvif74vsxfhaKnFiYtAnFimb6vFp4j7YEjGRGWutSjfmbcFAockGgMnTlzZnh0dDTUoDb7jJltGIYL0hMbwyVVzGePYPNEEoqCmRoUfQkZaI6Ku8P686I2a7voEvVa0izCSLLFwihbIzkTksbblRiYyYERs9WqhHv3XcxJgooKFKFAWRiYLJJNn8eYJTlhm8Z+3mLpyqky7NskFboTyAZWha2+1pFV/64scYGgaFWYwFNy7733ylVXXXX+MbwX3jMu8J781V/91du2bt3KzF1tTIQq6U5YtpsFRGapZKv2BRYvMJjViCqLJfCWqLjZhFoHNsKkEWgHBw8eHFBjZV3KYVcXgOOFhwfHDvGr2xp8Fz0GrFEZjXMsMLiahJ1YJUSYnZ11hLQNYdmw9LmrJUfQvwYJcz0+VxLEf9/pzxLuO3hdW0wlW9m+ffugkIWC2+yJasxCp60S1v791IzS0vtzEidvl1ToWimxmamWZNVt/RIXeEwQjtUqN9xwQy2M61vf+pZ88pOfPP843hPvHZdPfepTnzl27Fh+4X0kK1ybnSJU1i46mQgtzEza7osaB/6/o3gwsNg8qbo/EcRqauC7qME0rAbTFk+sYK2KtDZzfJF72zYsMKjoHVmwuM2eyMso8wjrX9NOdYz7TicoBvWe24BJCn1oh0S45/R+2c1F8guDEKGby0RkFPvCP2PuStYgrCsBIVHPkh6JBRxOM/rf6t/bLHGAgIgTygVR8uEPf7j2+6pVq2qhXPCkeOC944aKqRv8Q88888wS4cL4tgaVt232QwiAtAnnzp0bkJTR82orMNwGayOsOmqsAzIx5YkQZfYqK4zRNHD27FmkSB2K6E1x6kViZ2en7cxw/BkoUii0D3s04OneKBMKSRPWv5riiJmASQr0K96CerGzAXvNOjlScLQtBd0HuUxERrEv3hInpZwq0yac+hfELcSI9SZzPb2xQrq8Rey2vO9976sJD2/TjqMWzlVP/YL4VhbY+1m+fPn7v/jFL14heWVuI1lhdX+bNQFtgc7Gx5tdCAEziBHiuMfqXmstEPSaJFXPoIYOSmUpKAgBQxjK7OwsRIpr+zod9C4QGfBSWQqcXI1VkgqBfV2eEzDaJgP7pAiiOlF8IiV0TQmyeLVR+G87E3YfZD4xE9b+/bxlkM5lV7TsAlZK4t6TjqUSC9Q26f7teN5+eE2ipP6tFyf4uxnwoHhrUCBM4npP/vAP//BDt9xyS4d2OvSetCl6ba0W/cLYTttYwxqBLEID0v4uU1NT8Jo4lrsfrXutI5YkncVJz0sqog0GC4pJJmG4+Io72npQHP8fxktlZejp+Uh1JhhtnQIoOyz6up2SA2YyI2i2eiKp0M1WwcSAWAgU7b/ocSw42n+OheySemIUPxbt/wLeEifVC2f2MiVh70lczwlSV/W8tyxxiLPOJAyEePm9KhAncbwnK1ascB5++OFONQSYsatNgbFnmyY4TWPNq+uRVZEv7aD3pTHLZ76H9eLQ7u5uK3HY5LWuJIQZIAYkQWB467XcMz09fVz/rOi1TWTRLNqsWYdiw0WzSXrtHxQL0haxCIPRYzmi54g1IzLArKlyA3bJxVtmEQ5ViKxxECgWY0W7rE1sWyzG/Ezvg6jhgG+Jk9kcxUkK3pM4oL7JihieE1R1T7JgYiPgWYFIARAmSC/cKj09PTe+/e1vxwogek7aGNt1JyYDUioCRQ3Xw144U0aViJ00YqT1PfdFWLcxUr/eJErtmcnJycTEVZLnwoiSIzC89VwM+s5HkotmWw5zWbp06Yit5yUtEav30U5PDJoQQNSMOE6RkjqBojZtb1k9NpMCHR0dVmLa81CmmTnLQtg7QgpP2Jif1X3QyqTYeXFS2iReTvx8SNB7Mhej9gxcB/CcdK5qfZxCdfcoIESrlcKK/uxdEEStsnz58vVqJHZVKhWKkzZGZ+CHI4TJVNTwTNTti9l1aTDjlrZIgeGcpNjCe0WpGaBGx0WGEuoxiCUoqiYJ4DeUW8UzjPRanTSipNxoP4jQJIz9COty3PrHIAgjeF68oo6JCRR9L7T14UafJRQpqYK+Luh5tNss0+JiMiNkFzes3o5373keSpM5K5W1H2GekwiFZ23g+pWUKMp90Mqk2IWLoKtiNbOaCgl6T+bOScvUxIn+tzRGVXi/F8PLtlWP67rnt4ceeuiCOia2+NelRBVEfjo7O1edPHmyU8WJkPbFGGvWi6t135GkjHoIE4gECf688yJFkqcS97vAEDACq2L7GgzyjeLIw+ox1L1HbJEYYChHQq8Prk3FQjT06YC0R2Ki391qfUCzFKwqoKJ85z4jUByJCbxK+v2PhOzmiBEpXJOSLOb+GgvaJ6u0uJaTGU3XeXgeSm2bJ+XCey+1zFk6IRJ4f1cTTHlcLVjmwHbCZoIm7fug1Umx+gxNY5InjiRCHM9JCZFNpZIsS0ic1Kf/TRK/oIkTRtbV1XXVypUrma1rERDRewIqcTwaeB0G1jBh4sememyLtPxdYCDAcI3yPcDs7OyOZs/Zpg2NO7ulr+23MJRtsQo9ARiQdGA61mrbMWLSsdm32bk06w+iZDurCZQ4Hg0MxsarZOv16Z2ZmXGFJApqA4Xs0puUGG2GmRSohOzmNksVjnYY5KFEf5SSsA1ru65YYlFXyWH2r/TQNlIJ2SW1+yDOpNgFBmnpQzVxEsVwSRYsZE+ganwccTKnvpO5mLaRf3E6BISXgStp/OIkzoJ4YDJ1MayrzcFMig52odlY/BiPxhGTicmxeY0vBOFYlBAoxY16fFGIGkJmZi33wUCQ6ItAR4IGZts1QABJBKJ6fjxPj772cFKzk8aIciO85Lyxb2uAmOxWhyWChyooQ5MK8krUuim67cN1j2L4eTPcEnEwRnsvQmHMdkPb6riEC1MnTcPMclKgaX9nk0jDrJdyJEEsMvqNSwTC7r8salItViwnaBK/Dyy9x025uDJ4Vb9ESfIrsrNW5uVRDIFx7lWJxVwKM7eeOPFqnziOE/oaiA/UO2kl5Csqp0+f7ti6dascOnRISHtz8ODBYTWiNkcUDY7MZ2KC92EMhrVu452dnecHHR0kkcEKBuhm3a+Mx1rwgmRiqBmRgpl91MPAQPuoPlb7LvgO+jsyYpTxnaQ1QkUWFmwjLCOCcMC5L+vxDQWlHIUI0O+2U997MI2QiY6Ojh1GrNni6LYPYV56/KNoO/oert9boN+pTx/Dfufbji0I3wlqMxDkOlDu0M89LBFAGzHeHy/rzaOmrdRQr1gvjhltRR/v13MS+VybApuxw+1IYyBMtT3B0HYCdvMMs03aVlxJAHjPtL3bhD+OBBVYRdvV94JhGRTemOjxYyIhLAzHIk1tPa4ETO4gfFOPf6RBoVqSALgPtD3eHdIea+0IfWXclNbGexyrX7tYnHTIqAqU/MQJckY5uj0tLTNzWmLRUYrnQEAWLc+TgXArT1zUC5Qw8FqkJG7mdfF7S7zMXTGovvzyy/ScLBIQbqSGFQxMRyJiRA2MZAxS9c9JDIaSrIRuSV997vWEwsq2hIksn+Fh3d/i3Jtsaq7Mz176qwBfLfOeij6zr6QBBi4Lg+kizMA4gA3tRttf/fPSCkGhcx5YbNzKMRscX8at8w+i/Xt/t3jsrs2xk9bxhKmFmIZhhgQFFTXk9rZqJGPmWUX3HhS4s2gTVl7iKIalHn+sPhQhoPDSBh172GRAI4yXOMjz7AmsLUECy/Nk5l0PZqFh7oMteh1C7wOT9nxkyZIlQ1HFLq4PMoBFnPhsyEXipHSrjFcfqoV3lSUvsDAe4V2/lpaI4znpqEU2VeXNX7myvMV1JxAj3roTvzgBUQVKEP61LTfccIO0inYKv+rp6aleccUVqQX7k2KBwUUHsi060BypFmBBoh7H/gMHDlQkITCA6vdyJJ+Ul0MmpCQUrAGKWMzRwzFbv0QEIRZxr7nljHQWWHva9JoM6qALr1iiWehapFZkkuFc6QNDVo3uXTC6LXZHux6Ah0+Ns722xpkxyjariBiwvbfggdQ26YbtB8NSj3/I4vgdmQ9HvDvMu1qP36gME1URMuCdR7/rqLb3sIkBTKwcw7nHeIB069iwOF//Luvzm/Vv/KSgbwEzqQQxHDoZ5kUWmCiJ/drfjzW7F7Zt2+Z0dnZiHPKuTxC4tlbFGLsaPlqVIbXRy5InMcK7Jl+UWHTql5851bp3EVm0POGALFr11d6TEij+9MFxxIl2qC+cPn169tChQxQniwgY0NpZbcpboBhhMiAJYkKHhiKGHyXBkKmybEWEmd2kwGz9pla9Zh44bh2UYr9PTMajnGugBuegDrpIgxpZ1CUIhUnGIJRV+zr0cTZeShhPaCeDJuwTBtqjCEX0dkBIH8I/dbtZn+uPGv6JxfpRxIM5fkcsPH913tX9etxjCKH02hvCPlE7yYRSbtSH+iyMSo+RVjwz+K7G0C2H7NrrhVPiD8+7mpYXeLGB/lKvg2M7QeNFSei9gIybmNRyvfVDmPwzIdC9ltcH/d4uFTL7bHZumKHJLIx3JU+88K6ITJ6QWFT1H6K6Tj/5qLSKP30wqrc3AgKlldomfvzipF4ARUE72jfWrFkzK2TRAYGi13+D5He/DyUtTDzM4J/a4voGDEU1lgGO0yKzUGzMoLIlKaMY7wMjW/JpO+Nnz57dFPE1NVGl12iLRMvglSQUJjlh7s2o/UGfydBXS4rhbUgygcfMc06E96sJE4gNiQg8fxaV2/04uu3G8aqRj5C1KjakJMbfJlHGYIQQnFjJSuDNEZI7GG8xISgRMROYfZ74lXkRbzupGbnfa54+tiT5NySEd/1mpFfImeckFgjqgjvpzC+sojIaAi+Gv3p7sxokcRa6Yy2Klz4Y79OsnooNp06deuLkyZNzQhYlnpHZiru+VWAo62fuaMWYj0KLBkkkTJjUljjfxRgrqR2nOcZNtuFmtnhtx79QPANGIUxGR0dbdm/D0MtCEPqBQaDHvYHCJD+y6A+a4fUTrQgTD/X8QViPSvbEFtU5TBaRJpgJwayuRUttp6k4Kd0qI5K39wRg7UmEgJMzrsQC4qRD/5v6lSutAmHir95+zz33NEz1a7OIHaFfyOz17ne/W77whS/UHsN7+UPC4npgfvGLX/xk7dq18JxQoCxS0HHooDkg8/G8rqQIZv/grdHPHJEMgEGiM4UY1F1JGO+76LmLbTCY40zDE+GmIUw80HZ0sIP3LQsRuAuejzjCxANGog6a6yRlY88zSmEQJHHcJB5GoGTtLR5Pop/wef6yNPIT8/aZc5+X15L4MNci1fEe42OrbSe48F61IAuPHJmvgRICQrpmTklsOvWLn/7pmMQB4sQTH/BwNFpfAlFhm2ULggQhYngfbH6vSVxxcujQoZ+vWbNmRsiiB/HEJlQHg58rCYKOCsa3GmmZh7UgW1PC3iHXGJyJfhfMLiZ8nHsxW5+WMPGDwQ7GftIeOBOONnTmzJl1cWadG4FrZ4y9HRFDZkKpO+48ZrtJE3A/dHd3Q6Ckaij7BHWiHrMsDEvD3qS9ffBaCj0ohcAb79Pos9Hu44yPXYEf8CEZyz1zF8D6k3fp9pQELpA/FSP98AUfVypJx+nX5eRPxmTNvy9LK0B0YF2J5+2AsPAe8++DOibwrPgzbwVRL3LwfnHCw1T0/FQb0MtYEC/ZgEHaDdsJWTqkQHR2do5Y5nYPNQKXLVs2MTU1FSr8vbobWWM6kwo2UykbWZlaWkBswrf26/kbTTD9o82kyUXXwXyvgW3btqEoHzYsBnXEEmNsjkfNhBOVLI5TReKusLocrbS/umMfxIJbm8wsjTBi4UE17kfS9jiYRb4j2t5rawyinnMP79xjsNfjHqWnpLiYdMGD2laHzX2WWBY3Y5zt1TYwnFYbQJvVY8eED4yKVlJkNwX3Xpr9HMSVHvsIFkcnkXaWtE6D8abl+yDJdl8K26H6Y+2gZ+WYRAquSomzMl//pIEZDY/JC/8Qrzq8R1XFyZnZqqz6dEWc/xKv5AvEiX9RPDwqEBT1HhPPIxIFvNfnP/95icNTTz313z7wgQ/89auvvnpKGxZTYpCmmHSTfabonCPzmVXO9wv6GLwJ6JyewxoEiLmix9f7vtNGU0Dy/HcyHS0Mzdd1EB1TAT+Wl7EJoxnpNJEVSI2Rmxscp+udd53pLJRRjFSTXV1dyAgEkXJz/XkGpu24RTjXHjjnKLI4Oztb1uO72mSmcbznvfOuv07o77UCjXrc40UUJPguElBnoij3Ku7HoMxXadZBQjvV641rvXMhCGo/vmO/O4ax7+qGdVHDORz7gJkQ6GuyyNrVDUJsv41gMpNqDdH2hcxlY2KBtsfA4qpp1+XyrmvALuNJe8V9n4lJSdwHTshLXDHXxqb/02tzPOA9kQ2uNvkYKk6Aek+gzG1yhKcPvvazFz8Mr8nLRyUxzqmZ/tryXrn1pyclLvCMYAG7Bzwd9dm6oooTvPbee++VuHzlK1+5dc+ePcdeeOGFN4UQQghZ5EQR1EUTpv39/b09PT1l28mAok0k4fiXLVt2/liZQCJfTHvyxLp3XSaQnnpycnIiapu/8847TwZk+dprwv7sxAlQgYJ89mUpAiiy6F740PMPJLPexGNWT82Eemiu3fd9ubTF0C4/9R4U4GXZwoa0wM3SDteThMcEnDp16l/Xrl37Ue1UX9M/ueaEEEIIIYQkDmrsIJV1wC7n0/EHrjm5gE7ZUZjwrsvMT3f+x8lHkhUmAJkClql0c/9mKBFxAjGBFMP+xez4CUFiK0q8NSv+TGBx+MEPfvA/VJjAY8IsXYQQQgghJBXU2xIYLtnR0XE+RC04W5eP0vtVCswVJHsXgEBx5kXJ649L4pSkKktKVXnzZ2Py6k/GJAkQioUF8FEXsXui5KGHHkpMmJw7d+7FrVu3jq1fv/6cUJwQQgghhJCUmJub6w953vV+tw7r8qj+UCr6qnirxBPkzYdEXvpfySyErwcL40/Nisz+7ka55RtHJGkQyoUCjcjUhc2rhQIxAvGCqu8I+fIXdUyKo0eP/ll/f//9ExMT8DmxOjwhhBBCyCIAySe6urrckZERVzIiZDE8avis8f6ILE5A9Qcyoj6XxNLutYxZe3JOf770veRDu8B0VeTkbEmuH0lm7UkROHHixINr1679U/WavPLEE0+kIOsIIYQQQkiRMBkqd5usbufXeGTxueoZaTrLj0x3qIvi/W0d1nXBm/wHGRCLeg6pgmCkF+d/XXqZyNr/LNK1UhKnU+Xbio6qPPUXn5SZNxZ+ynqEc/393//9Vy6//PJTjz/++LQQQgghhJC2BAvR1WuxG5myIBB86aZ36nOOZIB+bmAtnvpCkC2JkxrTAoWTn0BBOmHfnD+EyVV/oELCkUSpLYzvKMmSE648+zcLv6jpz3/+87/50pe+9G+vvPLKm6xrQgghhBDSnkCUTE9PI5yq0iCFb68+t09SxtSdCVtvMub/u2VxUtokE7kJFCS7alCVo6Nb5DduF1lziyRKl3pPLlHvySvfGBZ3/15ZqDz//PP3bdy48RunT5/G4hauMyGEEEIIaV9KAXVF4LEoQ8BIShjPTOD7I6Srvp5N654T8QmUkoxKVpzQ7aXgXdb8rsg7/iDBMK9qVbpLJVndWZIX1Xvyxr/lG9HWCmfOnHnq6quv3v3mm28ixzTCueg1IYQQQghpU9QjMWKxWyUNgQJhMjU1hXUmTtB+Kk4uCkuKJU5qb6oCpXSrbFFTN32XAoTJi3a7eutQVl4viYDUwsv0bF1ydkLGP3GbvPmCKwsFrDO59957P71mzZpXy+UyUwcTQgghhLQ5xiNhY58nKlBshYkyet99943VPxhbnHiUPiSDar+ntygjgjDxgOfkio3zWxJelA71oKzQM7by7EkZ/6NNcu61V1LID5YsECZf+tKXPvHlL3/5sWuuuebs2NgYK8ETQgghhCwCuru7K+qdsMnoBIFyPO4ieX2PndPT0yja7oTtq56dXY0ebymVcBDVH0mfipTDYnFQ1rQgTOpBHRQUazz5sMRmVkoTL0xV//pHn/jij3ft2vXVSy655F1SQE6fPv309u3bP3H06NFnr7/++jcefvhhZucihBBCCFlEhKXyrUfFzIhu+xt5NRqBjGDqKUFGrgGxt/+bpjJOXJyA6o/1wGalor/Gq4WCOf7ndEswgy9qoZx8ROTU09Iq4x1dsmXduPxq9erVPZOTk2978sknd6tXYrsUCNd177/nnnv2fPe73z1uhAnOJteZEEIIIYQsMtSjURGJVkQdHpdqtTqmvz4qtcqCF+DodrVuZYnukNirwmSw2ZOpiBMP9aIMqDmME+FIVBAw5coF6YKTZFK9Mb8+GqFwY0km5uZk6J1PyLD3ULlc7nr00UcvefPNNy/9p3/6p7tuueWWzyxbtuxKyZHZ2dlTjz322Fc3bNjwd2vWrHkNoVz0mBBCCCGELG5aEShJA4/MgQMHBoL26ZQUGfq6jFf+WB6UOTXtS/I+qxdhfh8hXM9LqslusQZl9Y3zP+emg0WKKrgx9Zb8p2sfk+/4H1fvxNxHP/rRmZdeeunc1772tX87e/bsj2644YY1q1atSmgZfjQmJiYerlQqn1L+N4TJq6++evbEiRNMGUwIIYQQssjRyeuxm266CY6JsuQDPCafDtspVc+JH6tQr5S9JUHAk4JQL3+4F0SJWvZD73xcxkJe3nHdddcteeaZZ3r099Xf+ta3Pnbbbbf916VLl66VDDh58uQj3/nOd/5ux44dR/QzT77xxhtnZD5dMLNyEUIIIYSQ89x11139c3NzeyTJ9eEBIDxMP2/o4MGDw1b7S8Y0FCkQJSfMz5yBB+XlozJ25oSVKPFT2rp1a8ehQ4eWXXLJJSvPnDmz+hvf+MaHPvKRj3y6t7c34bKQ88BT8u1vf/ur6qb7gX7m6/qZp5EqeGwMmorrSwghhBBCyMVs27bNUdGATF7x1oeHgCKLs7OzO+oLLQa+RnKiJlLOyoD8XxUpr2ej3ELAsvv96msYLe2KJEouoFqtlt7znvd0Pffcc8teeeWV5frQys9+9rPXffzjH//wtddeW16zBiUiWwdekpdeeumnu3btuu/IkSMnurq6zqxYseL0yy+/fK5SqczqRm8JIYQQQggJxWTyQqatfkkQiBIUWLTN+HXBa6UAVPdIWTpq6cc2imQqVCb0DIyrJwcFasZUlCSYF0w61IvR8fTTT3erR2Pp66+/vmLp0qUrbr/99svV07H+5ptvfu9ll132ru7u7pXLly+/sn4h/eTk5ImZmZlTr7322i9//etfP6VC54U9e/b85OjRoy93dnaeUVEyqa87p0JlSgXRjDYAekoIIYQQQkhk4ElR+xICZbPalWVpAQgSfe3Rs2fPDo+OjrZsUxdCnPgxQqWsR7ZRqtKnD/VKsozrdhQeEvyesCBphBfu1XHVVVd1qVDpVu/HUn28S7du3Zbo1qkixZ+cAEJjbmpqalZFy7QKlemenp4pFSTT6iWZevHFF5E2wEsNTFFCCCGEEEISob+/v1ftzj4VGn3qVUH412rdHO95fRy2M9IMv66Pj3d0dLinT58ejyNI/BROnNSjYgUCxVHB0qdHe7NArFRr3pVeaSxcJs5v8IpU5XUVIhAk2NwMxEgQ3vnuwOY4Tqfruh1XXHFFB8LBvJ3US4If1bVr186paJnTfbw1JHNCQUIIIYQQQtqUwouTRUDYNaAQIYQQQgghhBBCCCGEEEIIIYQQQgghhBBCCCGEEEIIIYQQQgghhBBCCCGEEEIIyYv/D2DBX5YQMWQ4AAAAAElFTkSuQmCC;" vertex="1" parent="1">
          <mxGeometry x="120" y="265.65" width="153.5" height="24.35" as="geometry" />
        </mxCell>
        <mxCell id="5hUDQQry_mjtpb-gvesq-37" value="" style="shape=image;verticalLabelPosition=bottom;labelBackgroundColor=default;verticalAlign=top;aspect=fixed;imageAspect=0;image=data:image/svg+xml,PHN2ZyB4bWxucz0iaHR0cDovL3d3dy53My5vcmcvMjAwMC9zdmciIGZpbGw9Im5vbmUiIHZpZXdCb3g9IjAgMCAxMDgwIDEyNyIgaGVpZ2h0PSIxMjciIHdpZHRoPSIxMDgwIj4mI3hhOzxwYXRoIGZpbGw9IiM1QTVBNUEiIGQ9Ik01MjUuNDY3IDMzLjExMzVINTM0LjI5Mkw1NTkuMjk3IDk4LjkzMzhINTUwLjc0N0w1NDQuMTI4IDgwLjgyNDFINTE1LjcyM0w1MDkuMTA0IDk4LjkzMzhINTAwLjU1NUw1MjUuNDY3IDMzLjExMzVaTTU0MS40NjMgNzMuNDY5OEw1MzIuNzI5IDQ5Ljc1MjVMNTMwLjA2NCA0Mi42NzRINTI5LjY5Nkw1MjcuMTIyIDQ5Ljc1MjVMNTE4LjM4OSA3My40Njk4SDU0MS40NjNaTTU3OS4yOTYgMTAwLjQwNUM1NzMuNjU4IDEwMC40MDUgNTY5LjMzNyA5OC43NSA1NjYuMzM0IDk1LjQ0MDZDNTYzLjM5MiA5Mi4xMzEyIDU2MS45MjIgODcuNTA0MSA1NjEuOTIyIDgxLjU1OTVWNTIuMDUwN0g1NjkuNzM1VjgwLjM2NDRDNTY5LjczNSA4NC44MzgyIDU3MC43NDcgODguMTE3IDU3Mi43NjkgOTAuMjAwN0M1NzQuNzkxIDkyLjI4NDQgNTc3LjUxOSA5My4zMjYyIDU4MC45NTEgOTMuMzI2MkM1ODMuNTg2IDkzLjMyNjIgNTg1LjkxNSA5Mi42MjE1IDU4Ny45MzcgOTEuMjExOUM1OTAuMDIxIDg5LjgwMjMgNTkxLjYxNCA4Ny45NjM4IDU5Mi43MTcgODUuNjk2MkM1OTMuODgyIDgzLjQyODcgNTk0LjQ2NCA4MS4wMzg2IDU5NC40NjQgNzguNTI1OVY1Mi4wNTA3SDYwMi4yNzhWOTguOTMzOEg1OTQuODMyVjkyLjEzMTJINTk0LjQ2NEM1OTMuMTc3IDk0LjQ2IDU5MS4xMjQgOTYuNDIxMSA1ODguMzA1IDk4LjAxNDZDNTg1LjQ4NiA5OS42MDggNTgyLjQ4MyAxMDAuNDA1IDU3OS4yOTYgMTAwLjQwNVpNNjMwLjQ0NyA5OS42NjkzQzYyOC41NDcgOTkuNjY5MyA2MjYuNzcgOTkuMzYyOCA2MjUuMTE1IDk4Ljc1QzYyMy41MjIgOTguMTM3MSA2MjIuMTc0IDk3LjMwOTggNjIxLjA3MSA5Ni4yNjc5QzYxOS44NDUgOTUuMTAzNSA2MTguOTI2IDkzLjc1NTIgNjE4LjMxMyA5Mi4yMjMxQzYxNy43IDkwLjY5MSA2MTcuMzk0IDg4LjgyMTggNjE3LjM5NCA4Ni42MTU1VjU5LjEyOTFINjA5LjIxMlY1Mi4wNTA3SDYxNy4zOTRWMzguODEzMUg2MjUuMjA3VjUyLjA1MDdINjM2LjYwNlY1OS4xMjkxSDYyNS4yMDdWODQuNjg1QzYyNS4yMDcgODcuMjU5IDYyNS42OTggODkuMTU4OCA2MjYuNjc4IDkwLjM4NDZDNjI3Ljg0MyA5MS43MzI4IDYyOS41MjggOTIuNDA3IDYzMS43MzQgOTIuNDA3QzYzMy41MTIgOTIuNDA3IDYzNS4yMjcgOTEuODg2IDYzNi44ODIgOTAuODQ0MlY5OC40NzQyQzYzNS45NjMgOTguOTAzMiA2MzUuMDEzIDk5LjIwOTYgNjM0LjAzMiA5OS4zOTM1QzYzMy4xMTMgOTkuNTc3MyA2MzEuOTE4IDk5LjY2OTMgNjMwLjQ0NyA5OS42NjkzWk02NDQuNzA1IDMzLjExMzVINjUyLjUxOVY1Mi41MTAzTDY1Mi4xNTEgNTguOTQ1Mkg2NTIuNTE5QzY1My44MDYgNTYuNTU1MSA2NTUuODI4IDU0LjU2MzMgNjU4LjU4NiA1Mi45Njk5QzY2MS40MDUgNTEuMzc2NSA2NjQuNDY5IDUwLjU3OTggNjY3Ljc3OSA1MC41Nzk4QzY3My40NzggNTAuNTc5OCA2NzcuODI5IDUyLjI2NTIgNjgwLjgzMiA1NS42MzU4QzY4My44MzUgNTguOTQ1MiA2ODUuMzM3IDYzLjM1NzggNjg1LjMzNyA2OC44NzM0Vjk4LjkzMzhINjc3LjUyM1Y3MC4wNjg1QzY3Ny41MjMgNjUuODM5OCA2NzYuNDUgNjIuNzE0MyA2NzQuMzA1IDYwLjY5MTlDNjcyLjE2IDU4LjY2OTUgNjY5LjM3MiA1Ny42NTgzIDY2NS45NCA1Ny42NTgzQzY2My40ODkgNTcuNjU4MyA2NjEuMjIxIDU4LjM5MzcgNjU5LjEzNyA1OS44NjQ1QzY1Ny4xMTUgNjEuMzM1NCA2NTUuNDkxIDYzLjIzNTIgNjU0LjI2NSA2NS41NjRDNjUzLjEwMSA2Ny44OTI5IDY1Mi41MTkgNzAuMzEzNiA2NTIuNTE5IDcyLjgyNjNWOTguOTMzOEg2NDQuNzA1VjMzLjExMzVaTTcxNS42MjMgMTAwLjQwNUM3MTEuMTQ5IDEwMC40MDUgNzA3LjEzNSA5OS4zMzIyIDcwMy41OCA5Ny4xODcyQzcwMC4wMjYgOTUuMDQyMiA2OTcuMjM3IDkyLjEwMDUgNjk1LjIxNSA4OC4zNjIxQzY5My4yNTQgODQuNTYyNSA2OTIuMjczIDgwLjMwMzEgNjkyLjI3MyA3NS41ODQyQzY5Mi4yNzMgNzEuMDQ5MSA2OTMuMTkyIDY2Ljg4MTcgNjk1LjAzMSA2My4wODJDNjk2LjkzMSA1OS4yODIzIDY5OS41OTcgNTYuMjQ4NyA3MDMuMDI5IDUzLjk4MTFDNzA2LjQ2MSA1MS43MTM2IDcxMC40NDQgNTAuNTc5OCA3MTQuOTc5IDUwLjU3OThDNzE5LjU3NiA1MC41Nzk4IDcyMy41NTkgNTEuNjIxNyA3MjYuOTMgNTMuNzA1NEM3MzAuMyA1NS43Mjc4IDczMi44NzQgNTguNTQ2OSA3MzQuNjUyIDYyLjE2MjdDNzM2LjQ5IDY1Ljc3ODUgNzM3LjQxIDY5LjkxNTMgNzM3LjQxIDc0LjU3M0M3MzcuNDEgNzUuNDkyMiA3MzcuMzE4IDc2LjI4OSA3MzcuMTM0IDc2Ljk2MzFINzAwLjA4N0M3MDAuMjcxIDgwLjUxNzYgNzAxLjEyOSA4My41MjA2IDcwMi42NjEgODUuOTcyQzcwNC4xOTMgODguNDIzNCA3MDYuMTIzIDkwLjI2MiA3MDguNDUyIDkxLjQ4NzdDNzEwLjg0MiA5Mi43MTM0IDcxMy4zMjQgOTMuMzI2MiA3MTUuODk4IDkzLjMyNjJDNzIxLjkwNCA5My4zMjYyIDcyNi41MzEgOTAuNTA3MSA3MjkuNzggODQuODY4OUw3MzYuMzk4IDg4LjA4NjRDNzM0LjM3NiA5MS44ODYgNzMxLjYxOCA5NC44ODkgNzI4LjEyNSA5Ny4wOTUzQzcyNC42OTMgOTkuMzAxNSA3MjAuNTI1IDEwMC40MDUgNzE1LjYyMyAxMDAuNDA1Wk03MjkuMTM2IDcwLjUyODFDNzI5LjAxMyA2OC41NjcgNzI4LjQ2MiA2Ni42MDU5IDcyNy40ODEgNjQuNjQ0OEM3MjYuNTAxIDYyLjY4MzYgNzI0LjkzOCA2MS4wMjg5IDcyMi43OTMgNTkuNjgwN0M3MjAuNzA5IDU4LjMzMjQgNzE4LjA3NCA1Ny42NTgzIDcxNC44ODcgNTcuNjU4M0M3MTEuMjEgNTcuNjU4MyA3MDguMDg1IDU4Ljg1MzMgNzA1LjUxMSA2MS4yNDM0QzcwMi45OTggNjMuNTcyMyA3MDEuMzQzIDY2LjY2NzIgNzAwLjU0NyA3MC41MjgxSDcyOS4xMzZaTTc0NC43MTYgNTIuMDUwN0g3NTIuMTYyVjU4Ljk0NTJINzUyLjUzQzc1My44MTcgNTYuNjE2NCA3NTUuODcgNTQuNjU1MyA3NTguNjg5IDUzLjA2MTlDNzYxLjUwOCA1MS40MDcyIDc2NC41MTEgNTAuNTc5OCA3NjcuNjk4IDUwLjU3OThDNzczLjMzNiA1MC41Nzk4IDc3Ny42MjYgNTIuMjM0NSA3ODAuNTY4IDU1LjU0MzlDNzgzLjU3IDU4Ljc5MiA3ODUuMDcyIDYzLjIzNTIgNzg1LjA3MiA2OC44NzM0Vjk4LjkzMzhINzc3LjI1OFY3MC4wNjg1Qzc3Ny4yNTggNjUuNzE3MyA3NzYuMjE2IDYyLjU2MTEgNzc0LjEzMyA2MC41OTk5Qzc3Mi4wNDkgNTguNjM4OCA3NjkuMTk5IDU3LjY1ODMgNzY1LjU4MyA1Ny42NTgzQzc2My4wNzEgNTcuNjU4MyA3NjAuODAzIDU4LjM2MyA3NTguNzgxIDU5Ljc3MjZDNzU2LjgxOSA2MS4xODIyIDc1NS4yODcgNjMuMDUxNCA3NTQuMTg0IDY1LjM4MDJDNzUzLjA4MSA2Ny42NDc3IDc1Mi41MyA3MC4wMzc5IDc1Mi41MyA3Mi41NTA2Vjk4LjkzMzhINzQ0LjcxNlY1Mi4wNTA3Wk04MTAuMDkxIDk5LjY2OTNDODA4LjE5MSA5OS42NjkzIDgwNi40MTQgOTkuMzYyOCA4MDQuNzU5IDk4Ljc1QzgwMy4xNjUgOTguMTM3MSA4MDEuODE3IDk3LjMwOTggODAwLjcxNCA5Ni4yNjc5Qzc5OS40ODggOTUuMTAzNSA3OTguNTY5IDkzLjc1NTIgNzk3Ljk1NiA5Mi4yMjMxQzc5Ny4zNDMgOTAuNjkxIDc5Ny4wMzcgODguODIxOCA3OTcuMDM3IDg2LjYxNTVWNTkuMTI5MUg3ODguODU1VjUyLjA1MDdINzk3LjAzN1YzOC44MTMxSDgwNC44NTFWNTIuMDUwN0g4MTYuMjVWNTkuMTI5MUg4MDQuODUxVjg0LjY4NUM4MDQuODUxIDg3LjI1OSA4MDUuMzQxIDg5LjE1ODggODA2LjMyMiA5MC4zODQ2QzgwNy40ODYgOTEuNzMyOCA4MDkuMTcxIDkyLjQwNyA4MTEuMzc4IDkyLjQwN0M4MTMuMTU1IDkyLjQwNyA4MTQuODcxIDkxLjg4NiA4MTYuNTI2IDkwLjg0NDJWOTguNDc0MkM4MTUuNjA2IDk4LjkwMzIgODE0LjY1NiA5OS4yMDk2IDgxMy42NzYgOTkuMzkzNUM4MTIuNzU3IDk5LjU3NzMgODExLjU2MiA5OS42NjkzIDgxMC4wOTEgOTkuNjY5M1pNODI4Ljk0NSA0My40MDk0QzgyNy40MTIgNDMuNDA5NCA4MjYuMDk1IDQyLjg1NzkgODI0Ljk5MiA0MS43NTQ3QzgyMy44ODggNDAuNjUxNiA4MjMuMzM3IDM5LjMzNCA4MjMuMzM3IDM3LjgwMThDODIzLjMzNyAzNi4yNjk3IDgyMy44ODggMzQuOTgyNyA4MjQuOTkyIDMzLjk0MDlDODI2LjA5NSAzMi44Mzc3IDgyNy40MTIgMzIuMjg2MiA4MjguOTQ1IDMyLjI4NjJDODMwLjQ3NyAzMi4yODYyIDgzMS43OTQgMzIuODM3NyA4MzIuODk3IDMzLjk0MDlDODM0LjAwMSAzNC45ODI3IDgzNC41NTIgMzYuMjY5NyA4MzQuNTUyIDM3LjgwMThDODM0LjU1MiAzOS4zMzQgODM0LjAwMSA0MC42NTE2IDgzMi44OTcgNDEuNzU0N0M4MzEuODU2IDQyLjg1NzkgODMwLjUzOCA0My40MDk0IDgyOC45NDUgNDMuNDA5NFpNODI1LjA4NCA1Mi4wNTA3SDgzMi44MDVWOTguOTMzOEg4MjUuMDg0VjUyLjA1MDdaTTg2NC4wMzQgMTAwLjQwNUM4NTkuNDk5IDEwMC40MDUgODU1LjQyMyA5OS4zMzIyIDg1MS44MDcgOTcuMTg3MkM4NDguMTkxIDk0Ljk4MDkgODQ1LjM3MiA5Mi4wMDg2IDg0My4zNSA4OC4yNzAyQzg0MS4zMjcgODQuNDcwNSA4NDAuMzE2IDgwLjIxMTIgODQwLjMxNiA3NS40OTIyQzg0MC4zMTYgNzAuNzczMyA4NDEuMzI3IDY2LjUxNCA4NDMuMzUgNjIuNzE0M0M4NDUuMzcyIDU4LjkxNDYgODQ4LjE5MSA1NS45NDIzIDg1MS44MDcgNTMuNzk3M0M4NTUuNDIzIDUxLjY1MjMgODU5LjQ5OSA1MC41Nzk4IDg2NC4wMzQgNTAuNTc5OEM4NjkuMTIgNTAuNTc5OCA4NzMuMzggNTEuNzc0OSA4NzYuODEyIDU0LjE2NUM4ODAuMzA1IDU2LjQ5MzggODgyLjc4NyA1OS42MTk0IDg4NC4yNTggNjMuNTQxNkw4NzcuMTc5IDY2LjQ4MzNDODc2LjAxNSA2My42MDI5IDg3NC4yNjggNjEuNDI3MyA4NzEuOTM5IDU5Ljk1NjRDODY5LjY3MiA1OC40MjQzIDg2Ni45MTQgNTcuNjU4MyA4NjMuNjY2IDU3LjY1ODNDODYwLjkwOCA1Ny42NTgzIDg1OC4zMzQgNTguNDI0MyA4NTUuOTQ0IDU5Ljk1NjRDODUzLjU1NCA2MS40MjczIDg1MS42MjMgNjMuNTExIDg1MC4xNTMgNjYuMjA3NUM4NDguNzQzIDY4LjkwNDEgODQ4LjAzOCA3MS45OTkgODQ4LjAzOCA3NS40OTIyQzg0OC4wMzggNzguOTg1NSA4NDguNzQzIDgyLjA4MDQgODUwLjE1MyA4NC43NzdDODUxLjYyMyA4Ny40NzM1IDg1My41NTQgODkuNTg3OCA4NTUuOTQ0IDkxLjEyQzg1OC4zMzQgOTIuNTkwOCA4NjAuOTA4IDkzLjMyNjIgODYzLjY2NiA5My4zMjYyQzg2Ni45NzUgOTMuMzI2MiA4NjkuODI1IDkyLjU2MDIgODcyLjIxNSA5MS4wMjhDODc0LjYwNSA4OS40OTU5IDg3Ni4zODMgODcuMzIwMyA4NzcuNTQ3IDg0LjUwMTJMODg0LjUzNCA4Ny40NDI5Qzg4Mi45NCA5MS4zMDM4IDg4MC4zNjYgOTQuNDI5NCA4NzYuODEyIDk2LjgxOTVDODczLjMxOCA5OS4yMDk2IDg2OS4wNTkgMTAwLjQwNSA4NjQuMDM0IDEwMC40MDVaTTkwNS42NzggMTAwLjQwNUM5MDIuMjQ2IDEwMC40MDUgODk5LjE4MiA5OS43MzA1IDg5Ni40ODYgOTguMzgyM0M4OTMuNzg5IDk3LjAzNCA4OTEuNzA1IDk1LjE5NTQgODkwLjIzNSA5Mi44NjY2Qzg4OC43NjQgOTAuNDc2NSA4ODguMDI4IDg3Ljc3OTkgODg4LjAyOCA4NC43NzdDODg4LjAyOCA3OS44MTI5IDg4OS44OTcgNzUuOTUxOSA4OTMuNjM2IDczLjE5NDFDODk3LjM3NCA3MC4zNzQ5IDkwMi4wOTMgNjguOTY1NCA5MDcuNzkzIDY4Ljk2NTRDOTEwLjYxMiA2OC45NjU0IDkxMy4yMTYgNjkuMjcxOCA5MTUuNjA3IDY5Ljg4NDdDOTE4LjA1OCA3MC40OTc1IDkxOS45MjcgNzEuMjAyMyA5MjEuMjE0IDcxLjk5OVY2OS4xNDkyQzkyMS4yMTQgNjUuNjU2IDkxOS45ODggNjIuODY3NSA5MTcuNTM3IDYwLjc4MzhDOTE1LjA4NiA1OC42Mzg4IDkxMS45OTEgNTcuNTY2MyA5MDguMjUyIDU3LjU2NjNDOTA1LjYxNyA1Ny41NjYzIDkwMy4xOTYgNTguMTQ4NSA5MDAuOTkgNTkuMzEzQzg5OC43ODQgNjAuNDE2MSA4OTcuMDM3IDYxLjk3ODkgODk1Ljc1IDY0LjAwMTNMODg5Ljg2NyA1OS41ODg3Qzg5MS43MDUgNTYuNzY5NiA4OTQuMjE4IDU0LjU2MzMgODk3LjQwNSA1Mi45Njk5QzkwMC42NTMgNTEuMzc2NSA5MDQuMjM4IDUwLjU3OTggOTA4LjE2IDUwLjU3OThDOTE0LjUzNCA1MC41Nzk4IDkxOS41MjkgNTIuMjY1MiA5MjMuMTQ1IDU1LjYzNThDOTI2LjgyMiA1OC45NDUyIDkyOC42NiA2My40ODAzIDkyOC42NiA2OS4yNDEyVjk4LjkzMzhIOTIxLjIxNFY5Mi4yMjMxSDkyMC44NDZDOTE5LjQ5OCA5NC40OTA3IDkxNy40NzYgOTYuNDIxMSA5MTQuNzc5IDk4LjAxNDZDOTEyLjA4MyA5OS42MDggOTA5LjA0OSAxMDAuNDA1IDkwNS42NzggMTAwLjQwNVpNOTA2LjQxNCA5My41MTAxQzkwOS4wNDkgOTMuNTEwMSA5MTEuNSA5Mi44MzYgOTEzLjc2OCA5MS40ODc3QzkxNi4wMzYgOTAuMTM5NCA5MTcuODQ0IDg4LjMzMTUgOTE5LjE5MiA4Ni4wNjM5QzkyMC41NCA4My43OTY0IDkyMS4yMTQgODEuMzE0MyA5MjEuMjE0IDc4LjYxNzhDOTE5Ljc0MyA3Ny42MzcyIDkxNy45MzUgNzYuODQwNSA5MTUuNzkgNzYuMjI3N0M5MTMuNjQ1IDc1LjYxNDggOTExLjM3OCA3NS4zMDg0IDkwOC45ODggNzUuMzA4NEM5MDQuNjk4IDc1LjMwODQgOTAxLjQ1IDc2LjE5NyA4OTkuMjQzIDc3Ljk3NDNDODk3LjA5OCA3OS43NTE2IDg5Ni4wMjYgODIuMDQ5OCA4OTYuMDI2IDg0Ljg2ODlDODk2LjAyNiA4Ny40NDI5IDg5Ny4wMDcgODkuNTI2NiA4OTguOTY4IDkxLjEyQzkwMC45MjkgOTIuNzEzNCA5MDMuNDExIDkzLjUxMDEgOTA2LjQxNCA5My41MTAxWk05NTQuODEyIDk5LjY2OTNDOTUyLjkxMyA5OS42NjkzIDk1MS4xMzUgOTkuMzYyOCA5NDkuNDgxIDk4Ljc1Qzk0Ny44ODcgOTguMTM3MSA5NDYuNTM5IDk3LjMwOTggOTQ1LjQzNiA5Ni4yNjc5Qzk0NC4yMSA5NS4xMDM1IDk0My4yOTEgOTMuNzU1MiA5NDIuNjc4IDkyLjIyMzFDOTQyLjA2NSA5MC42OTEgOTQxLjc1OSA4OC44MjE4IDk0MS43NTkgODYuNjE1NVY1OS4xMjkxSDkzMy41NzdWNTIuMDUwN0g5NDEuNzU5VjM4LjgxMzFIOTQ5LjU3MlY1Mi4wNTA3SDk2MC45NzJWNTkuMTI5MUg5NDkuNTcyVjg0LjY4NUM5NDkuNTcyIDg3LjI1OSA5NTAuMDYzIDg5LjE1ODggOTUxLjA0MyA5MC4zODQ2Qzk1Mi4yMDggOTEuNzMyOCA5NTMuODkzIDkyLjQwNyA5NTYuMDk5IDkyLjQwN0M5NTcuODc3IDkyLjQwNyA5NTkuNTkzIDkxLjg4NiA5NjEuMjQ3IDkwLjg0NDJWOTguNDc0MkM5NjAuMzI4IDk4LjkwMzIgOTU5LjM3OCA5OS4yMDk2IDk1OC4zOTggOTkuMzkzNUM5NTcuNDc4IDk5LjU3NzMgOTU2LjI4MyA5OS42NjkzIDk1NC44MTIgOTkuNjY5M1pNOTczLjY2NiA0My40MDk0Qzk3Mi4xMzQgNDMuNDA5NCA5NzAuODE2IDQyLjg1NzkgOTY5LjcxMyA0MS43NTQ3Qzk2OC42MSA0MC42NTE2IDk2OC4wNTkgMzkuMzM0IDk2OC4wNTkgMzcuODAxOEM5NjguMDU5IDM2LjI2OTcgOTY4LjYxIDM0Ljk4MjcgOTY5LjcxMyAzMy45NDA5Qzk3MC44MTYgMzIuODM3NyA5NzIuMTM0IDMyLjI4NjIgOTczLjY2NiAzMi4yODYyQzk3NS4xOTggMzIuMjg2MiA5NzYuNTE2IDMyLjgzNzcgOTc3LjYxOSAzMy45NDA5Qzk3OC43MjIgMzQuOTgyNyA5NzkuMjc0IDM2LjI2OTcgOTc5LjI3NCAzNy44MDE4Qzk3OS4yNzQgMzkuMzM0IDk3OC43MjIgNDAuNjUxNiA5NzcuNjE5IDQxLjc1NDdDOTc2LjU3NyA0Mi44NTc5IDk3NS4yNiA0My40MDk0IDk3My42NjYgNDMuNDA5NFpNOTY5LjgwNSA1Mi4wNTA3SDk3Ny41MjdWOTguOTMzOEg5NjkuODA1VjUyLjA1MDdaTTEwMDkuMTIgMTAwLjQwNUMxMDA0LjUzIDEwMC40MDUgMTAwMC4zOSA5OS4zMDE1IDk5Ni43MTMgOTcuMDk1M0M5OTMuMDM2IDk0Ljg4OSA5OTAuMTU1IDkxLjg4NiA5ODguMDcyIDg4LjA4NjRDOTg2LjA0OSA4NC4yODY3IDk4NS4wMzggODAuMDg4NiA5ODUuMDM4IDc1LjQ5MjJDOTg1LjAzOCA3MC44OTU5IDk4Ni4wNDkgNjYuNjk3OCA5ODguMDcyIDYyLjg5ODFDOTkwLjE1NSA1OS4wOTg1IDk5My4wMzYgNTYuMDk1NSA5OTYuNzEzIDUzLjg4OTJDMTAwMC4zOSA1MS42ODI5IDEwMDQuNTMgNTAuNTc5OCAxMDA5LjEyIDUwLjU3OThDMTAxMy43MiA1MC41Nzk4IDEwMTcuODYgNTEuNjgyOSAxMDIxLjUzIDUzLjg4OTJDMTAyNS4yMSA1Ni4wOTU1IDEwMjguMDYgNTkuMDk4NSAxMDMwLjA4IDYyLjg5ODFDMTAzMi4xNyA2Ni42OTc4IDEwMzMuMjEgNzAuODk1OSAxMDMzLjIxIDc1LjQ5MjJDMTAzMy4yMSA4MC4wODg2IDEwMzIuMTcgODQuMjg2NyAxMDMwLjA4IDg4LjA4NjRDMTAyOC4wNiA5MS44ODYgMTAyNS4yMSA5NC44ODkgMTAyMS41MyA5Ny4wOTUzQzEwMTcuODYgOTkuMzAxNSAxMDEzLjcyIDEwMC40MDUgMTAwOS4xMiAxMDAuNDA1Wk0xMDA5LjEyIDkzLjMyNjJDMTAxMiA5My4zMjYyIDEwMTQuNjcgOTIuNjIxNSAxMDE3LjEyIDkxLjIxMTlDMTAxOS42MyA4OS43NDExIDEwMjEuNjMgODcuNjU3NCAxMDIzLjEgODQuOTYwOEMxMDI0LjYzIDgyLjI2NDMgMTAyNS4zOSA3OS4xMDgxIDEwMjUuMzkgNzUuNDkyMkMxMDI1LjM5IDcxLjg3NjQgMTAyNC42MyA2OC43MjAyIDEwMjMuMSA2Ni4wMjM3QzEwMjEuNjMgNjMuMzI3MSAxMDE5LjYzIDYxLjI3NDEgMTAxNy4xMiA1OS44NjQ1QzEwMTQuNjcgNTguMzkzNyAxMDEyIDU3LjY1ODMgMTAwOS4xMiA1Ny42NTgzQzEwMDYuMjQgNTcuNjU4MyAxMDAzLjU1IDU4LjM5MzcgMTAwMS4wMyA1OS44NjQ1Qzk5OC41MjEgNjEuMjc0MSA5OTYuNDk4IDYzLjMyNzEgOTk0Ljk2NiA2Ni4wMjM3Qzk5My40OTUgNjguNzIwMiA5OTIuNzYgNzEuODc2NCA5OTIuNzYgNzUuNDkyMkM5OTIuNzYgNzkuMTA4MSA5OTMuNDk1IDgyLjI2NDMgOTk0Ljk2NiA4NC45NjA4Qzk5Ni40OTggODcuNjU3NCA5OTguNTIxIDg5Ljc0MTEgMTAwMS4wMyA5MS4yMTE5QzEwMDMuNTUgOTIuNjIxNSAxMDA2LjI0IDkzLjMyNjIgMTAwOS4xMiA5My4zMjYyWk0xMDM5LjU1IDUyLjA1MDdIMTA0Ni45OVY1OC45NDUySDEwNDcuMzZDMTA0OC42NSA1Ni42MTY0IDEwNTAuNyA1NC42NTUzIDEwNTMuNTIgNTMuMDYxOUMxMDU2LjM0IDUxLjQwNzIgMTA1OS4zNCA1MC41Nzk4IDEwNjIuNTMgNTAuNTc5OEMxMDY4LjE3IDUwLjU3OTggMTA3Mi40NiA1Mi4yMzQ1IDEwNzUuNCA1NS41NDM5QzEwNzguNCA1OC43OTIgMTA3OS45IDYzLjIzNTIgMTA3OS45IDY4Ljg3MzRWOTguOTMzOEgxMDcyLjA5VjcwLjA2ODVDMTA3Mi4wOSA2NS43MTczIDEwNzEuMDUgNjIuNTYxMSAxMDY4Ljk2IDYwLjU5OTlDMTA2Ni44OCA1OC42Mzg4IDEwNjQuMDMgNTcuNjU4MyAxMDYwLjQxIDU3LjY1ODNDMTA1Ny45IDU3LjY1ODMgMTA1NS42MyA1OC4zNjMgMTA1My42MSA1OS43NzI2QzEwNTEuNjUgNjEuMTgyMiAxMDUwLjEyIDYzLjA1MTQgMTA0OS4wMSA2NS4zODAyQzEwNDcuOTEgNjcuNjQ3NyAxMDQ3LjM2IDcwLjAzNzkgMTA0Ny4zNiA3Mi41NTA2Vjk4LjkzMzhIMTAzOS41NVY1Mi4wNTA3WiIvPiYjeGE7PHBhdGggZmlsbD0iIzVBNUE1QSIgZD0iTTQ2MS42MTIgOTkuMzk4N0M0NTcuMTU3IDk5LjM5ODcgNDUzLjEzIDk4LjM2MTUgNDQ5LjUzMSA5Ni4yODY5QzQ0NS45OTIgOTQuMjEyNCA0NDMuMjE1IDkxLjM0NDcgNDQxLjIwMiA4Ny42ODM4QzQzOS4xODggODMuOTYxOCA0MzguMTgyIDc5LjgxMjggNDM4LjE4MiA3NS4yMzY2QzQzOC4xODIgNzAuODQzNSA0MzkuMTI3IDY2LjgxNjUgNDQxLjAxOSA2My4xNTU1QzQ0Mi45NzEgNTkuNDMzNiA0NDUuNjg3IDU2LjUwNDggNDQ5LjE2NCA1NC4zNjkzQzQ1Mi42NDIgNTIuMTcyNyA0NTYuNjA4IDUxLjA3NDUgNDYxLjA2MiA1MS4wNzQ1QzQ2NS42MzkgNTEuMDc0NSA0NjkuNjA1IDUyLjA4MTIgNDcyLjk2IDU0LjA5NDdDNDc2LjM3NyA1Ni4xMDgyIDQ3OC45NyA1OC45MTUgNDgwLjc0IDYyLjUxNDlDNDgyLjUwOSA2Ni4wNTM4IDQ4My4zOTQgNzAuMTQxOCA0ODMuMzk0IDc0Ljc3OUM0ODMuMzk0IDc1LjMyODEgNDgzLjM2NCA3NS44NzczIDQ4My4zMDMgNzYuNDI2NEM0ODMuMjQyIDc2Ljk3NTUgNDgzLjIxMSA3Ny4yODA2IDQ4My4yMTEgNzcuMzQxNkg0NDguMjQ5QzQ0OC41NTQgODEuNDkwNyA0NTAuMDQ5IDg0LjY5NCA0NTIuNzM0IDg2Ljk1MTZDNDU1LjQxOSA4OS4yMDkxIDQ1OC40NjkgOTAuMzM3OSA0NjEuODg2IDkwLjMzNzlDNDY3LjEzMyA5MC4zMzc5IDQ3MS4xNjEgODcuODk3MyA0NzMuOTY3IDgzLjAxNjFMNDgyLjU3IDg3LjEzNDZDNDgwLjU1NyA5MC44NTY2IDQ3Ny43NSA5My44NDYzIDQ3NC4xNSA5Ni4xMDM5QzQ3MC42MTEgOTguMzAwNCA0NjYuNDMyIDk5LjM5ODcgNDYxLjYxMiA5OS4zOTg3Wk00NzMuMTQ0IDY5LjY1MzdDNDczLjAyMSA2OC4xODkzIDQ3Mi41MzMgNjYuNjk0NCA0NzEuNjc5IDY1LjE2OUM0NzAuODI1IDYzLjY0MzcgNDY5LjQ4MyA2Mi4zNjIzIDQ2Ny42NTIgNjEuMzI1MUM0NjUuODgzIDYwLjIyNjggNDYzLjY1NiA1OS42Nzc2IDQ2MC45NzEgNTkuNjc3NkM0NTcuOTgxIDU5LjY3NzYgNDU1LjM4OCA2MC41OTI5IDQ1My4xOTEgNjIuNDIzM0M0NTEuMDU2IDY0LjI1MzggNDQ5LjU5MiA2Ni42NjM5IDQ0OC43OTggNjkuNjUzN0g0NzMuMTQ0WiIvPiYjeGE7PHBhdGggZmlsbD0iIzVBNUE1QSIgZD0iTTQxNi4wODcgOTkuMzk4N0M0MTAuOSA5OS4zOTg3IDQwNi41OTkgOTguMjA4OSA0MDMuMTgyIDk1LjgyOTNDMzk5LjgyNiA5My4zODg3IDM5Ny40NDYgOTAuMzM3OSAzOTYuMDQzIDg2LjY3N0w0MDUuMDEyIDgyLjgzM0M0MDYuMDUgODUuMzM0NyA0MDcuNTQ0IDg3LjIyNjEgNDA5LjQ5NyA4OC41MDc1QzQxMS41MSA4OS43ODg4IDQxMy43MDcgOTAuNDI5NCA0MTYuMDg3IDkwLjQyOTRDNDE4LjU4OCA5MC40Mjk0IDQyMC42MzIgODkuOTcxOCA0MjIuMjE5IDg5LjA1NjZDNDIzLjgwNSA4OC4wODA0IDQyNC41OTggODYuODI5NSA0MjQuNTk4IDg1LjMwNDFDNDI0LjU5OCA4My44Mzk4IDQyMy45NTggODIuNjUgNDIyLjY3NiA4MS43MzQ3QzQyMS4zOTUgODAuNzU4NSA0MTkuMjkgNzkuOTA0MyA0MTYuMzYxIDc5LjE3MjFMNDEwLjEzOCA3Ny43MDc3QzQwNi43MjEgNzYuOTE0NSA0MDMuNzYxIDc1LjQ1MDEgNDAxLjI2IDczLjMxNDZDMzk4LjgxOSA3MS4xMTggMzk3LjU5OSA2OC4yODA4IDM5Ny41OTkgNjQuODAyOUMzOTcuNTk5IDYwLjU5MjkgMzk5LjMzOCA1Ny4yNjc1IDQwMi44MTYgNTQuODI2OUM0MDYuMjk0IDUyLjMyNTMgNDEwLjU2NSA1MS4wNzQ1IDQxNS42MjkgNTEuMDc0NUM0MTkuODM5IDUxLjA3NDUgNDIzLjU2MSA1MS45NTkyIDQyNi43OTUgNTMuNzI4NkM0MzAuMDkgNTUuNDk4MSA0MzIuNDY5IDU4LjA2MDcgNDMzLjkzNCA2MS40MTY2TDQyNS4wNTYgNjUuMTY5QzQyNC4yMDIgNjMuMjc3NiA0MjIuODkgNjEuODc0MiA0MjEuMTIgNjAuOTU5QzQxOS4zNTEgNjAuMDQzNyA0MTcuNDI5IDU5LjU4NjEgNDE1LjM1NCA1OS41ODYxQzQxMy4zNDEgNTkuNTg2MSA0MTEuNTcxIDYwLjA0MzcgNDEwLjA0NiA2MC45NTlDNDA4LjUyMSA2MS44MTMyIDQwNy43NTggNjIuOTcyNSA0MDcuNzU4IDY0LjQzNjlDNDA3Ljc1OCA2NS43MTgyIDQwOC4yNzcgNjYuNzU1NCA0MDkuMzE0IDY3LjU0ODZDNDEwLjQxMiA2OC4zNDE4IDQxMi4xMjEgNjkuMDEzIDQxNC40MzkgNjkuNTYyMkw0MjEuMjEyIDcxLjIwOTZDNDI1Ljc4OCA3Mi4zNjg5IDQyOS4yMDUgNzQuMTM4MyA0MzEuNDYyIDc2LjUxNzlDNDMzLjcyIDc4LjgzNjUgNDM0Ljg0OSA4MS42NDMyIDQzNC44NDkgODQuOTM4MUM0MzQuODQ5IDg3LjYyMjcgNDM0LjAyNSA5MC4wNjM0IDQzMi4zNzggOTIuMjU5OUM0MzAuNzkxIDk0LjQ1NjUgNDI4LjU2NCA5Ni4xOTU0IDQyNS42OTYgOTcuNDc2N0M0MjIuODkgOTguNzU4MSA0MTkuNjg2IDk5LjM5ODcgNDE2LjA4NyA5OS4zOTg3WiIvPiYjeGE7PHBhdGggZmlsbD0iIzVBNUE1QSIgZD0iTTM2Ny45MjEgOTkuMzk4N0MzNjQuNjg4IDk5LjM5ODcgMzYxLjc1OSA5OC43NTgxIDM1OS4xMzUgOTcuNDc2N0MzNTYuNTczIDk2LjEzNDQgMzU0LjUyOSA5NC4zMDM5IDM1My4wMDMgOTEuOTg1M0MzNTEuNTM5IDg5LjYwNTcgMzUwLjgwNyA4Ni45MjExIDM1MC44MDcgODMuOTMxM0MzNTAuODA3IDc5LjE3MjEgMzUyLjU3NiA3NS40MTk2IDM1Ni4xMTUgNzIuNjczOUMzNTkuNzE1IDY5LjkyODIgMzY0LjI2MSA2OC41NTU0IDM2OS43NTIgNjguNTU1NEMzNzQuNTcyIDY4LjU1NTQgMzc4LjY5MSA2OS4zNzkxIDM4Mi4xMDggNzEuMDI2NVY2OS4xMDQ1QzM4Mi4xMDggNjYuMzU4OCAzODEuMDA5IDY0LjEwMTMgMzc4LjgxMyA2Mi4zMzE4QzM3Ni42NzcgNjAuNTAxNCAzNzQuMDg0IDU5LjU4NjEgMzcxLjAzMyA1OS41ODYxQzM2Ni4zOTYgNTkuNTg2MSAzNjIuNjc0IDYxLjQ3NzYgMzU5Ljg2NyA2NS4yNjA2TDM1Mi4xOCA1OS45NTIyQzM1NC4zMTUgNTcuMDg0NSAzNTYuOTY5IDU0Ljg4NzkgMzYwLjE0MiA1My4zNjI1QzM2My4zNzYgNTEuODM3MiAzNjcuMDA2IDUxLjA3NDUgMzcxLjAzMyA1MS4wNzQ1QzM3Ny42ODQgNTEuMDc0NSAzODIuODA5IDUyLjc1MjQgMzg2LjQwOSA1Ni4xMDgyQzM5MC4wNyA1OS40MDMxIDM5MS45MDEgNjQuMDcwOCAzOTEuOTAxIDcwLjExMTNWOTcuOTM0NEgzODIuMTA4VjkyLjM1MTRIMzgxLjU1OEMzODAuMDk0IDk0LjQyNiAzNzguMjMzIDk2LjEzNDQgMzc1Ljk3NiA5Ny40NzY3QzM3My43MTggOTguNzU4MSAzNzEuMDMzIDk5LjM5ODcgMzY3LjkyMSA5OS4zOTg3Wk0zNjkuNTY5IDkxLjA3MDFDMzcxLjgyNiA5MS4wNzAxIDM3My45MDEgOTAuNTIxIDM3NS43OTIgODkuNDIyN0MzNzcuNzQ1IDg4LjI2MzQgMzc5LjI3IDg2Ljc2ODUgMzgwLjM2OSA4NC45MzgxQzM4MS41MjggODMuMDQ2NiAzODIuMTA4IDgxLjAzMzEgMzgyLjEwOCA3OC44OTc1QzM3OC44NzQgNzcuMTI4MSAzNzUuNDI2IDc2LjI0MzMgMzcxLjc2NSA3Ni4yNDMzQzM2OC40MSA3Ni4yNDMzIDM2NS43ODYgNzYuOTc1NSAzNjMuODk0IDc4LjQzOTlDMzYyLjAwMyA3OS45MDQzIDM2MS4wNTcgODEuNzY1MiAzNjEuMDU3IDg0LjAyMjhDMzYxLjA1NyA4Ni4wOTczIDM2MS44ODEgODcuODA1OCAzNjMuNTI4IDg5LjE0ODFDMzY1LjIzNyA5MC40Mjk1IDM2Ny4yNSA5MS4wNzAxIDM2OS41NjkgOTEuMDcwMVoiLz4mI3hhOzxwYXRoIGZpbGw9IiM1QTVBNUEiIGQ9Ik0zMjUuNjg0IDk5LjM5ODNDMzIyLjM4OSA5OS4zOTgzIDMxOS40MyA5OC42OTY2IDMxNi44MDYgOTcuMjkzM0MzMTQuMjQ0IDk1Ljg4OTkgMzEyLjMyMiA5NC4xMjA1IDMxMS4wNCA5MS45ODQ5SDMxMC40OTFWOTcuOTMzOUgzMDAuOTczVjMyLjQwMzNIMzExLjA0VjUyLjA4MDhMMzEwLjQ5MSA1OC4zOTU5SDMxMS4wNEMzMTIuMzIyIDU2LjMyMTQgMzE0LjI0NCA1NC41ODI0IDMxNi44MDYgNTMuMTc5MUMzMTkuNDMgNTEuNzc1NyAzMjIuMzg5IDUxLjA3NDEgMzI1LjY4NCA1MS4wNzQxQzMyOS41ODkgNTEuMDc0MSAzMzMuMTg5IDUyLjExMTMgMzM2LjQ4NCA1NC4xODU4QzMzOS44NCA1Ni4yNjA0IDM0Mi40OTQgNTkuMTU4NiAzNDQuNDQ2IDYyLjg4MDVDMzQ2LjQ2IDY2LjU0MTUgMzQ3LjQ2NiA3MC42NiAzNDcuNDY2IDc1LjIzNjJDMzQ3LjQ2NiA3OS44MTIzIDM0Ni40NiA4My45MzA5IDM0NC40NDYgODcuNTkxOEMzNDIuNDk0IDkxLjI1MjcgMzM5Ljg0IDk0LjE1MSAzMzYuNDg0IDk2LjI4NjVDMzMzLjE4OSA5OC4zNjEgMzI5LjU4OSA5OS4zOTgzIDMyNS42ODQgOTkuMzk4M1pNMzIzLjk0NSA5MC4xNTQ1QzMyNi4zMjUgOTAuMTU0NSAzMjguNTIxIDg5LjU0NDMgMzMwLjUzNSA4OC4zMjRDMzMyLjYwOSA4Ny4xMDM3IDMzNC4yNTcgODUuMzY0OCAzMzUuNDc3IDgzLjEwNzJDMzM2Ljc1OCA4MC43ODg2IDMzNy4zOTkgNzguMTY0OSAzMzcuMzk5IDc1LjIzNjJDMzM3LjM5OSA3Mi4zMDc0IDMzNi43NTggNjkuNzE0MyAzMzUuNDc3IDY3LjQ1NjdDMzM0LjI1NyA2NS4xMzgxIDMzMi42MDkgNjMuMzY4NyAzMzAuNTM1IDYyLjE0ODRDMzI4LjUyMSA2MC45MjgxIDMyNi4zMjUgNjAuMzE3OSAzMjMuOTQ1IDYwLjMxNzlDMzIxLjU2NSA2MC4zMTc5IDMxOS4zMzggNjAuOTI4MSAzMTcuMjY0IDYyLjE0ODRDMzE1LjI1IDYzLjM2ODcgMzEzLjYwMyA2NS4xMDc2IDMxMi4zMjIgNjcuMzY1MkMzMTEuMTAxIDY5LjYyMjggMzEwLjQ5MSA3Mi4yNDY0IDMxMC40OTEgNzUuMjM2MkMzMTAuNDkxIDc4LjIyNTkgMzExLjEwMSA4MC44NDk2IDMxMi4zMjIgODMuMTA3MkMzMTMuNjAzIDg1LjM2NDggMzE1LjI1IDg3LjEwMzcgMzE3LjI2NCA4OC4zMjRDMzE5LjMzOCA4OS41NDQzIDMyMS41NjUgOTAuMTU0NSAzMjMuOTQ1IDkwLjE1NDVaIi8+JiN4YTs8cGF0aCBmaWxsPSIjNUE1QTVBIiBkPSJNMjczLjE5MiA5OS4zOTg4QzI2OC43MzggOTkuMzk4OCAyNjQuNzExIDk4LjM2MTYgMjYxLjExMSA5Ni4yODcxQzI1Ny41NzIgOTQuMjEyNSAyNTQuNzk1IDkxLjM0NDggMjUyLjc4MiA4Ny42ODM5QzI1MC43NjggODMuOTYxOSAyNDkuNzYyIDc5LjgxMjkgMjQ5Ljc2MiA3NS4yMzY3QzI0OS43NjIgNzAuODQzNiAyNTAuNzA3IDY2LjgxNjYgMjUyLjU5OSA2My4xNTU2QzI1NC41NTEgNTkuNDMzNyAyNTcuMjY3IDU2LjUwNSAyNjAuNzQ1IDU0LjM2OTRDMjY0LjIyMiA1Mi4xNzI5IDI2OC4xODggNTEuMDc0NiAyNzIuNjQzIDUxLjA3NDZDMjc3LjIxOSA1MS4wNzQ2IDI4MS4xODUgNTIuMDgxMyAyODQuNTQxIDU0LjA5NDlDMjg3Ljk1NyA1Ni4xMDg0IDI5MC41NTEgNTguOTE1MSAyOTIuMzIgNjIuNTE1QzI5NC4wODkgNjYuMDUzOSAyOTQuOTc0IDcwLjE0MTkgMjk0Ljk3NCA3NC43NzkxQzI5NC45NzQgNzUuMzI4MiAyOTQuOTQ0IDc1Ljg3NzQgMjk0Ljg4MyA3Ni40MjY1QzI5NC44MjIgNzYuOTc1NyAyOTQuNzkxIDc3LjI4MDcgMjk0Ljc5MSA3Ny4zNDE4SDI1OS44MjlDMjYwLjEzNCA4MS40OTA4IDI2MS42MjkgODQuNjk0MSAyNjQuMzE0IDg2Ljk1MTdDMjY2Ljk5OSA4OS4yMDkzIDI3MC4wNDkgOTAuMzM4IDI3My40NjYgOTAuMzM4QzI3OC43MTQgOTAuMzM4IDI4Mi43NDEgODcuODk3NCAyODUuNTQ3IDgzLjAxNjJMMjk0LjE1IDg3LjEzNDdDMjkyLjEzNyA5MC44NTY3IDI4OS4zMyA5My44NDY0IDI4NS43MyA5Ni4xMDRDMjgyLjE5MSA5OC4zMDA2IDI3OC4wMTIgOTkuMzk4OCAyNzMuMTkyIDk5LjM5ODhaTTI4NC43MjQgNjkuNjUzOEMyODQuNjAyIDY4LjE4OTQgMjg0LjExMyA2Ni42OTQ1IDI4My4yNTkgNjUuMTY5MkMyODIuNDA1IDYzLjY0MzggMjgxLjA2MyA2Mi4zNjI0IDI3OS4yMzIgNjEuMzI1MkMyNzcuNDYzIDYwLjIyNjkgMjc1LjIzNiA1OS42Nzc4IDI3Mi41NTEgNTkuNjc3OEMyNjkuNTYxIDU5LjY3NzggMjY2Ljk2OCA2MC41OTMgMjY0Ljc3MiA2Mi40MjM1QzI2Mi42MzYgNjQuMjUzOSAyNjEuMTcyIDY2LjY2NCAyNjAuMzc4IDY5LjY1MzhIMjg0LjcyNFoiLz4mI3hhOzxwYXRoIGZpbGw9IiM1QTVBNUEiIGQ9Ik0yMjEuODIyIDUyLjUzODlIMjMxLjM0MVY1OS4zMTE2SDIzMS44OUMyMzIuODY2IDU2Ljk5MzEgMjM0LjYzNiA1NS4wNzExIDIzNy4xOTggNTMuNTQ1N0MyMzkuNzYxIDUxLjk1OTMgMjQyLjM4NCA1MS4xNjYxIDI0NS4wNjkgNTEuMTY2MUMyNDcuMjY2IDUxLjE2NjEgMjQ5LjA2NiA1MS40NzEyIDI1MC40NjkgNTIuMDgxM1Y2Mi42MDY1QzI0OC4zOTUgNjEuNTY5MiAyNDYuMDc2IDYxLjA1MDYgMjQzLjUxMyA2MS4wNTA2QzI0MC4yMTggNjEuMDUwNiAyMzcuNDQyIDYyLjMzMTkgMjM1LjE4NSA2NC44OTQ2QzIzMi45ODggNjcuMzk2MiAyMzEuODkgNzAuNDc3NSAyMzEuODkgNzQuMTM4NFY5Ny45MzQ0SDIyMS44MjJWNTIuNTM4OVoiLz4mI3hhOzxwYXRoIGZpbGw9IiM1QTVBNUEiIGQ9Ik0yMDcuNDUyIDQ0Ljg1MDZDMjA1LjU2MSA0NC44NTA2IDIwMy45NDQgNDQuMjA5OSAyMDIuNjAyIDQyLjkyODZDMjAxLjMyIDQxLjU4NjMgMjAwLjY4IDM5Ljk2OTQgMjAwLjY4IDM4LjA3NzlDMjAwLjY4IDM2LjE4NjQgMjAxLjMyIDM0LjYgMjAyLjYwMiAzMy4zMTg3QzIwMy45NDQgMzEuOTc2MyAyMDUuNTYxIDMxLjMwNTIgMjA3LjQ1MiAzMS4zMDUyQzIwOS4zNDQgMzEuMzA1MiAyMTAuOTMgMzEuOTc2MyAyMTIuMjEyIDMzLjMxODdDMjEzLjU1NCAzNC42IDIxNC4yMjUgMzYuMTg2NCAyMTQuMjI1IDM4LjA3NzlDMjE0LjIyNSAzOS45Njk0IDIxMy41NTQgNDEuNTg2MyAyMTIuMjEyIDQyLjkyODZDMjEwLjkzIDQ0LjIwOTkgMjA5LjM0NCA0NC44NTA2IDIwNy40NTIgNDQuODUwNlpNMjAyLjQxOSA1Mi41Mzg2SDIxMi40ODZWOTcuOTM0MUgyMDIuNDE5VjUyLjUzODZaIi8+JiN4YTs8cGF0aCBmaWxsPSIjNUE1QTVBIiBkPSJNMTU2LjU2MiAzMi40MDM0SDE5Ni4zNzVWNDIuMTk2NEgxNjYuODEzVjYxLjA1MDJIMTkzLjQ0NlY3MC43NTE3SDE2Ni44MTNWOTcuOTM0MUgxNTYuNTYyVjMyLjQwMzRaIi8+JiN4YTs8cGF0aCBmaWxsPSIjRkY5MTAwIiBkPSJNMzEuNjU4MSAxMTguMUMzNi43MTA0IDEyMC4xMzMgNDIuMTkxNSAxMjEuMzQgNDcuOTQ2NyAxMjEuNTQxQzU1LjczNTUgMTIxLjgxMyA2My4xNDIyIDEyMC4yMDIgNjkuNzYzNSAxMTcuMTQzQzYxLjgyMzQgMTE0LjAyNCA1NC42MzIyIDEwOS40NjEgNDguNDk0OSAxMDMuNzlDNDQuNTE2NiAxMTAuMTU5IDM4LjYzMjUgMTE1LjE5IDMxLjY1ODEgMTE4LjFaIi8+JiN4YTs8cGF0aCBmaWxsPSIjRkZDNDAwIiBkPSJNNDguNDkyMyAxMDMuNzkxQzM0LjQ4MjcgOTAuODM0MiAyNS45ODM4IDcyLjA4MDYgMjYuNzAyMSA1MS41MTEyQzI2LjcyNTQgNTAuODQzMyAyNi43NjA3IDUwLjE3NTcgMjYuODAxOSA0OS41MDg0QzI0LjI5MjggNDguODU5NSAyMS42NzM0IDQ4LjQ2MzUgMTguOTc3NyA0OC4zNjk0QzE1LjExOTEgNDguMjM0NiAxMS4zODIzIDQ4LjcxMzIgNy44NTQ1MiA0OS43MDY2QzQuMTE0NzIgNTYuMjU3NyAxLjg1Nzg3IDYzLjc3NDIgMS41NzY3MiA3MS44MjU0QzAuODUxMTI3IDkyLjYwMzYgMTMuNDI1MyAxMTAuNzU5IDMxLjY1NTYgMTE4LjEwMUMzOC42MyAxMTUuMTkyIDQ0LjUxMzkgMTEwLjE2NyA0OC40OTIzIDEwMy43OTFaIi8+JiN4YTs8cGF0aCBmaWxsPSIjRkY5MTAwIiBkPSJNNDguNDkzNyAxMDMuNzkxQzUxLjc1MDkgOTguNTc4MiA1My43MjU4IDkyLjQ2NzEgNTMuOTU1NyA4NS44ODI5QzU0LjU2MDUgNjguNTYzOCA0Mi45MTc1IDUzLjY2NTMgMjYuODAzMyA0OS41MDc5QzI2Ljc2MiA1MC4xNzUzIDI2LjcyNjggNTAuODQyOCAyNi43MDM1IDUxLjUxMDhDMjUuOTg1MiA3Mi4wODAyIDM0LjQ4NCA5MC44MzM4IDQ4LjQ5MzcgMTAzLjc5MVoiLz4mI3hhOzxwYXRoIGZpbGw9IiNERDJDMDAiIGQ9Ik01Mi4xNTQzIDAuODI1MTM4QzQyLjk3NjYgOC4xNzc1NyAzNS43Mjk0IDE3Ljg3MjQgMzEuMzQ0NyAyOS4wNDA2QzI4LjgzNDQgMzUuNDM3NiAyNy4yNTY5IDQyLjMwOSAyNi43OTY0IDQ5LjUxMjFDNDIuOTEwNiA1My42Njk0IDU0LjU1MzYgNjguNTY4IDUzLjk0ODggODUuODg3MUM1My43MTg5IDkyLjQ3MTIgNTEuNzM4MiA5OC41NzYyIDQ4LjQ4NjggMTAzLjc5NUM1NC42MjM5IDEwOS40NzMgNjEuODE1MyAxMTQuMDI5IDY5Ljc1NTUgMTE3LjE0OUM4NS42OTMgMTA5Ljc4MSA5Ny4wMDA2IDkzLjkyODkgOTcuNjU1NCA3NS4xNzg1Qzk4LjA3OTYgNjMuMDMwMSA5My40MTIxIDUyLjIwMjYgODYuODE2NyA0My4wNjMzQzc5Ljg1MTUgMzMuMzk3NiA1Mi4xNTQzIDAuODI1MTM4IDUyLjE1NDMgMC44MjUxMzhaIi8+JiN4YTs8ZyBmaWx0ZXI9InVybCgjZmlsdGVyMF9kXzQ3Xzk5MikiPiYjeGE7PGNpcmNsZSBmaWxsPSJ3aGl0ZSIgcj0iMzAiIGN5PSI5MC40Njc4IiBjeD0iMTAwIi8+JiN4YTs8cGF0aCBmaWxsPSIjMUYxRjFGIiBkPSJNODMuNSAxMDIuNDY4Vjk4LjI2NzhDODMuNSA5Ny40MTc4IDgzLjcxODggOTYuNjM2NSA4NC4xNTYyIDk1LjkyNEM4NC41OTM4IDk1LjIxMTUgODUuMTc1IDk0LjY2NzggODUuOSA5NC4yOTI4Qzg3LjQ1IDkzLjUxNzggODkuMDI1IDkyLjkzNjUgOTAuNjI1IDkyLjU0OUM5Mi4yMjUgOTIuMTYxNSA5My44NSA5MS45Njc4IDk1LjUgOTEuOTY3OEM5Ny4xNSA5MS45Njc4IDk4Ljc3NSA5Mi4xNjE1IDEwMC4zNzUgOTIuNTQ5QzEwMS45NzUgOTIuOTM2NSAxMDMuNTUgOTMuNTE3OCAxMDUuMSA5NC4yOTI4QzEwNS44MjUgOTQuNjY3OCAxMDYuNDA2IDk1LjIxMTUgMTA2Ljg0NCA5NS45MjRDMTA3LjI4MSA5Ni42MzY1IDEwNy41IDk3LjQxNzggMTA3LjUgOTguMjY3OFYxMDIuNDY4SDgzLjVaTTExMC41IDEwMi40NjhWOTcuOTY3OEMxMTAuNSA5Ni44Njc4IDExMC4xOTQgOTUuODExNSAxMDkuNTgxIDk0Ljc5OUMxMDguOTY5IDkzLjc4NjUgMTA4LjEgOTIuOTE3OCAxMDYuOTc1IDkyLjE5MjhDMTA4LjI1IDkyLjM0MjggMTA5LjQ1IDkyLjU5OSAxMTAuNTc1IDkyLjk2MTVDMTExLjcgOTMuMzI0IDExMi43NSA5My43Njc4IDExMy43MjUgOTQuMjkyOEMxMTQuNjI1IDk0Ljc5MjggMTE1LjMxMyA5NS4zNDkgMTE1Ljc4OCA5NS45NjE1QzExNi4yNjMgOTYuNTc0IDExNi41IDk3LjI0MjggMTE2LjUgOTcuOTY3OFYxMDIuNDY4SDExMC41Wk05NS41IDkwLjQ2NzhDOTMuODUgOTAuNDY3OCA5Mi40Mzc1IDg5Ljg4MDMgOTEuMjYyNSA4OC43MDUzQzkwLjA4NzUgODcuNTMwMyA4OS41IDg2LjExNzggODkuNSA4NC40Njc4Qzg5LjUgODIuODE3OCA5MC4wODc1IDgxLjQwNTMgOTEuMjYyNSA4MC4yMzAzQzkyLjQzNzUgNzkuMDU1MyA5My44NSA3OC40Njc4IDk1LjUgNzguNDY3OEM5Ny4xNSA3OC40Njc4IDk4LjU2MjUgNzkuMDU1MyA5OS43Mzc1IDgwLjIzMDNDMTAwLjkxMyA4MS40MDUzIDEwMS41IDgyLjgxNzggMTAxLjUgODQuNDY3OEMxMDEuNSA4Ni4xMTc4IDEwMC45MTMgODcuNTMwMyA5OS43Mzc1IDg4LjcwNTNDOTguNTYyNSA4OS44ODAzIDk3LjE1IDkwLjQ2NzggOTUuNSA5MC40Njc4Wk0xMTAuNSA4NC40Njc4QzExMC41IDg2LjExNzggMTA5LjkxMyA4Ny41MzAzIDEwOC43MzggODguNzA1M0MxMDcuNTYyIDg5Ljg4MDMgMTA2LjE1IDkwLjQ2NzggMTA0LjUgOTAuNDY3OEMxMDQuMjI1IDkwLjQ2NzggMTAzLjg3NSA5MC40MzY1IDEwMy40NSA5MC4zNzRDMTAzLjAyNSA5MC4zMTE1IDEwMi42NzUgOTAuMjQyOCAxMDIuNCA5MC4xNjc4QzEwMy4wNzUgODkuMzY3OCAxMDMuNTk0IDg4LjQ4MDMgMTAzLjk1NiA4Ny41MDUzQzEwNC4zMTkgODYuNTMwMyAxMDQuNSA4NS41MTc4IDEwNC41IDg0LjQ2NzhDMTA0LjUgODMuNDE3OCAxMDQuMzE5IDgyLjQwNTMgMTAzLjk1NiA4MS40MzAzQzEwMy41OTQgODAuNDU1MyAxMDMuMDc1IDc5LjU2NzggMTAyLjQgNzguNzY3OEMxMDIuNzUgNzguNjQyOCAxMDMuMSA3OC41NjE1IDEwMy40NSA3OC41MjRDMTAzLjggNzguNDg2NSAxMDQuMTUgNzguNDY3OCAxMDQuNSA3OC40Njc4QzEwNi4xNSA3OC40Njc4IDEwNy41NjIgNzkuMDU1MyAxMDguNzM4IDgwLjIzMDNDMTA5LjkxMyA4MS40MDUzIDExMC41IDgyLjgxNzggMTEwLjUgODQuNDY3OFoiLz4mI3hhOzwvZz4mI3hhOzxkZWZzPiYjeGE7PGZpbHRlciBjb2xvci1pbnRlcnBvbGF0aW9uLWZpbHRlcnM9InNSR0IiIGZpbHRlclVuaXRzPSJ1c2VyU3BhY2VPblVzZSIgaGVpZ2h0PSI2NCIgd2lkdGg9IjY0IiB5PSI1OS4xMzgyIiB4PSI2OCIgaWQ9ImZpbHRlcjBfZF80N185OTIiPiYjeGE7PGZlRmxvb2QgcmVzdWx0PSJCYWNrZ3JvdW5kSW1hZ2VGaXgiIGZsb29kLW9wYWNpdHk9IjAiLz4mI3hhOzxmZUNvbG9yTWF0cml4IHJlc3VsdD0iaGFyZEFscGhhIiB2YWx1ZXM9IjAgMCAwIDAgMCAwIDAgMCAwIDAgMCAwIDAgMCAwIDAgMCAwIDEyNyAwIiB0eXBlPSJtYXRyaXgiIGluPSJTb3VyY2VBbHBoYSIvPiYjeGE7PGZlT2Zmc2V0IGR5PSIwLjY3MDQwOCIvPiYjeGE7PGZlR2F1c3NpYW5CbHVyIHN0ZERldmlhdGlvbj0iMSIvPiYjeGE7PGZlQ29tcG9zaXRlIG9wZXJhdG9yPSJvdXQiIGluMj0iaGFyZEFscGhhIi8+JiN4YTs8ZmVDb2xvck1hdHJpeCB2YWx1ZXM9IjAgMCAwIDAgMCAwIDAgMCAwIDAgMCAwIDAgMCAwIDAgMCAwIDAuMyAwIiB0eXBlPSJtYXRyaXgiLz4mI3hhOzxmZUJsZW5kIHJlc3VsdD0iZWZmZWN0MV9kcm9wU2hhZG93XzQ3Xzk5MiIgaW4yPSJCYWNrZ3JvdW5kSW1hZ2VGaXgiIG1vZGU9Im5vcm1hbCIvPiYjeGE7PGZlQmxlbmQgcmVzdWx0PSJzaGFwZSIgaW4yPSJlZmZlY3QxX2Ryb3BTaGFkb3dfNDdfOTkyIiBpbj0iU291cmNlR3JhcGhpYyIgbW9kZT0ibm9ybWFsIi8+JiN4YTs8L2ZpbHRlcj4mI3hhOzwvZGVmcz4mI3hhOzwvc3ZnPg==;" vertex="1" parent="1">
          <mxGeometry x="120" y="240" width="174" height="20.46" as="geometry" />
        </mxCell>
        <mxCell id="5hUDQQry_mjtpb-gvesq-38" value="" style="shape=image;verticalLabelPosition=bottom;labelBackgroundColor=default;verticalAlign=top;aspect=fixed;imageAspect=0;image=https://cdn.worldvectorlogo.com/logos/nextjs-2.svg;" vertex="1" parent="1">
          <mxGeometry x="151.71" y="362.93" width="56.58" height="34.13" as="geometry" />
        </mxCell>
        <mxCell id="5hUDQQry_mjtpb-gvesq-39" value="" style="shape=image;verticalLabelPosition=bottom;labelBackgroundColor=default;verticalAlign=top;aspect=fixed;imageAspect=0;image=https://hasura.io/logo.svg;" vertex="1" parent="1">
          <mxGeometry x="315" y="420" width="125" height="36.84" as="geometry" />
        </mxCell>
        <mxCell id="5hUDQQry_mjtpb-gvesq-41" value="" style="shape=image;verticalLabelPosition=bottom;labelBackgroundColor=default;verticalAlign=top;aspect=fixed;imageAspect=0;image=https://developers.line.biz/assets/img/products/liff/p1.svg;" vertex="1" parent="1">
          <mxGeometry x="107.5" y="405.13" width="51.71" height="51.71" as="geometry" />
        </mxCell>
        <mxCell id="5hUDQQry_mjtpb-gvesq-44" value="" style="shape=image;verticalLabelPosition=bottom;labelBackgroundColor=default;verticalAlign=top;aspect=fixed;imageAspect=0;image=data:image/svg+xml,PHN2ZyB4bWxucz0iaHR0cDovL3d3dy53My5vcmcvMjAwMC9zdmciIGZpbGw9Im5vbmUiIHZpZXdCb3g9IjAgMCA1ODEgMTEzIiBoZWlnaHQ9IjExMyIgd2lkdGg9IjU4MSI+JiN4YTs8cGF0aCBmaWxsPSIjMUYxRjFGIiBkPSJNMTUxLjM5NyA2Ni43NjA4QzE1MS45OTYgNzIuMzYyMSAxNTcuMDkxIDgxLjk2NDIgMTcxLjg3NyA4MS45NjQyQzE4NC43NjQgODEuOTY0MiAxOTAuOTU5IDczLjc2MjQgMTkwLjk1OSA2NS43NjA3QzE5MC45NTkgNTguNTU5IDE4Ni4wNjMgNTIuNjU3NyAxNzYuMzczIDUwLjY1NzFMMTY5LjM3OSA0OS4xNTY5QzE2Ni42ODIgNDguNjU2OCAxNjQuODg0IDQ3LjE1NjUgMTY0Ljg4NCA0NC43NTU5QzE2NC44ODQgNDEuOTU1MiAxNjcuNjgxIDM5Ljg1NDkgMTcxLjE3OCAzOS44NTQ5QzE3Ni43NzIgMzkuODU0OSAxNzguODcgNDMuNTU1NiAxNzkuMjcgNDYuNDU2NEwxOTAuMzU5IDQzLjk1NThDMTg5Ljc2IDM4LjY1NDYgMTg1LjA2NCAyOS43NTI3IDE3MS4wNzggMjkuNzUyN0MxNjAuNDg4IDI5Ljc1MjcgMTUyLjY5NiAzNy4wNTQzIDE1Mi42OTYgNDUuODU2MUMxNTIuNjk2IDUyLjc1NzYgMTU2Ljk5MSA1OC40NTkxIDE2Ni40ODIgNjAuNTU5NEwxNzIuOTc2IDYyLjA1OThDMTc2Ljc3MiA2Mi44NTk5IDE3OC4yNzEgNjQuNjYwNSAxNzguMjcxIDY2Ljg2MDlDMTc4LjI3MSA2OS40NjE1IDE3Ni4xNzMgNzEuNzYyIDE3MS43NzcgNzEuNzYyQzE2NS45ODMgNzEuNzYyIDE2My4wODUgNjguMTYxMSAxNjIuNzg2IDY0LjI2MDJMMTUxLjM5NyA2Ni43NjA4WiIvPiYjeGE7PHBhdGggZmlsbD0iIzFGMUYxRiIgZD0iTTIzMy40MjEgODAuNDYzOUgyNDYuMTA5QzI0NS45MDkgNzguNzYzNSAyNDUuNjA5IDc1LjM2MjggMjQ1LjYwOSA3MS41NjE4VjMxLjI1MjlIMjMyLjMyMVY1OS44NTkyQzIzMi4zMjEgNjUuNTYwNiAyMjguOTI1IDY5LjU2MTQgMjIzLjAzMSA2OS41NjE0QzIxNi44MzcgNjkuNTYxNCAyMTQuMDM5IDY1LjE2MDQgMjE0LjAzOSA1OS42NTkyVjMxLjI1MjlIMjAwLjc1MlY2Mi4zNTk5QzIwMC43NTIgNzMuMDYyMiAyMDcuNTQ1IDgxLjc2NDIgMjE5LjQzNCA4MS43NjQyQzIyNC42MjggODEuNzY0MiAyMzAuMzI1IDc5Ljc2MzggMjMzLjAyMiA3NS4xNjI3QzIzMy4wMjIgNzcuMTYzMSAyMzMuMjIxIDc5LjQ2MzYgMjMzLjQyMSA4MC40NjM5WiIvPiYjeGE7PHBhdGggZmlsbD0iIzFGMUYxRiIgZD0iTTI3My4wNzYgOTkuNDY4MlY3NS42NjNDMjc1LjQ3MyA3OC45NjM2IDI4MC40NjkgODEuNjY0NCAyODcuMjYzIDgxLjY2NDRDMzAxLjE0OSA4MS42NjQ0IDMxMC40MzkgNzAuNjYxNyAzMTAuNDM5IDU1Ljc1ODRDMzEwLjQzOSA0MS4xNTUzIDMwMi4xNDggMzAuMTUyOCAyODcuNzYyIDMwLjE1MjhDMjgwLjM3IDMwLjE1MjggMjc0Ljg3NSAzMy40NTM0IDI3Mi42NzcgMzcuMjU0NFYzMS4yNTNIMjU5Ljc5Vjk5LjQ2ODJIMjczLjA3NlpNMjk3LjM1MiA1NS44NTg1QzI5Ny4zNTIgNjQuNjYwNiAyOTEuOTU4IDY5Ljc2MTYgMjg1LjE2NCA2OS43NjE2QzI3OC4zNzIgNjkuNzYxNiAyNzIuODc3IDY0LjU2MDUgMjcyLjg3NyA1NS44NTg1QzI3Mi44NzcgNDcuMTU2NiAyNzguMzcyIDQyLjA1NTQgMjg1LjE2NCA0Mi4wNTU0QzI5MS45NTggNDIuMDU1NCAyOTcuMzUyIDQ3LjE1NjYgMjk3LjM1MiA1NS44NTg1WiIvPiYjeGE7PHBhdGggZmlsbD0iIzFGMUYxRiIgZD0iTTMxNy45NjQgNjcuMDYwOUMzMTcuOTY0IDc0Ljc2MjcgMzI0LjM1NyA4MS44NjQzIDMzNC44NDggODEuODY0M0MzNDIuMTM5IDgxLjg2NDMgMzQ2LjgzNSA3OC40NjM0IDM0OS4zMzIgNzQuNTYyNUMzNDkuMzMyIDc2LjQ2MyAzNDkuNTMyIDc5LjE2MzUgMzQ5LjgzMiA4MC40NjM5SDM2Mi4wMkMzNjEuNzIgNzguNzYzNSAzNjEuNDIyIDc1LjI2MjcgMzYxLjQyMiA3Mi42NjIyVjQ4LjQ1NjdDMzYxLjQyMiAzOC41NTQ1IDM1NS42MjcgMjkuNzUyNyAzNDAuMDQzIDI5Ljc1MjdDMzI2Ljg1NSAyOS43NTI3IDMxOS43NjEgMzguMjU0NCAzMTguOTYzIDQ1Ljk1NjJMMzMwLjc1MSA0OC40NTY3QzMzMS4xNTEgNDQuMTU1OCAzMzQuMzQ4IDQwLjQ1NSAzNDAuMTQxIDQwLjQ1NUMzNDUuNzM3IDQwLjQ1NSAzNDguNDM0IDQzLjM1NTYgMzQ4LjQzNCA0Ni44NTY0QzM0OC40MzQgNDguNTU2OCAzNDcuNTM2IDQ5Ljk1NzIgMzQ0LjczOCA1MC4zNTcyTDMzMi42NSA1Mi4xNTc2QzMyNC40NTggNTMuMzU3OSAzMTcuOTY0IDU4LjI1ODkgMzE3Ljk2NCA2Ny4wNjA5Wk0zMzcuNjQ0IDcxLjk2MkMzMzMuMzQ5IDcxLjk2MiAzMzEuMjUgNjkuMTYxNCAzMzEuMjUgNjYuMjYwOEMzMzEuMjUgNjIuNDU5OSAzMzMuOTQ3IDYwLjU1OTQgMzM3LjM0NSA2MC4wNTk0TDM0OC40MzQgNTguMzU5VjYwLjU1OTRDMzQ4LjQzNCA2OS4yNjE1IDM0My4yMzkgNzEuOTYyIDMzNy42NDQgNzEuOTYyWiIvPiYjeGE7PHBhdGggZmlsbD0iIzFGMUYxRiIgZD0iTTM4Ny43MDMgODAuNDY0MVY3NC40NjI3QzM5MC4yOTkgNzguNjYzNyAzOTUuNDk0IDgxLjY2NDQgNDAyLjI4OCA4MS42NjQ0QzQxNi4yNzYgODEuNjY0NCA0MjUuNDY3IDcwLjU2MTggNDI1LjQ2NyA1NS42NTg1QzQyNS40NjcgNDEuMDU1MiA0MTcuMTc0IDI5Ljk1MjggNDAyLjc4OCAyOS45NTI4QzM5NS40OTQgMjkuOTUyOCAzOTAuMSAzMy4xNTM1IDM4Ny45MDIgMzYuNjU0MVY4LjA0Nzg1SDM3NC44MTVWODAuNDY0MUgzODcuNzAzWk00MTIuMTc4IDU1Ljc1ODRDNDEyLjE3OCA2NC43NjA1IDQwNi43ODQgNjkuNzYxNiAzOTkuOTkgNjkuNzYxNkMzOTMuMjk3IDY5Ljc2MTYgMzg3LjcwMyA2NC42NjA2IDM4Ny43MDMgNTUuNzU4NEMzODcuNzAzIDQ2Ljc1NjQgMzkzLjI5NyA0MS44NTU0IDM5OS45OSA0MS44NTU0QzQwNi43ODQgNDEuODU1NCA0MTIuMTc4IDQ2Ljc1NjQgNDEyLjE3OCA1NS43NTg0WiIvPiYjeGE7PHBhdGggZmlsbD0iIzFGMUYxRiIgZD0iTTQzMi45OSA2Ny4wNjA5QzQzMi45OSA3NC43NjI3IDQzOS4zODMgODEuODY0MyA0NDkuODczIDgxLjg2NDNDNDU3LjE2NSA4MS44NjQzIDQ2MS44NjIgNzguNDYzNCA0NjQuMzU4IDc0LjU2MjVDNDY0LjM1OCA3Ni40NjMgNDY0LjU1OSA3OS4xNjM1IDQ2NC44NTggODAuNDYzOUg0NzcuMDQ2QzQ3Ni43NDggNzguNzYzNSA0NzYuNDQ4IDc1LjI2MjcgNDc2LjQ0OCA3Mi42NjIyVjQ4LjQ1NjdDNDc2LjQ0OCAzOC41NTQ1IDQ3MC42NTMgMjkuNzUyNyA0NTUuMDY4IDI5Ljc1MjdDNDQxLjg4MSAyOS43NTI3IDQzNC43ODggMzguMjU0NCA0MzMuOTg5IDQ1Ljk1NjJMNDQ1Ljc3NiA0OC40NTY3QzQ0Ni4xNzcgNDQuMTU1OCA0NDkuMzc0IDQwLjQ1NSA0NTUuMTY3IDQwLjQ1NUM0NjAuNzYzIDQwLjQ1NSA0NjMuNDYgNDMuMzU1NiA0NjMuNDYgNDYuODU2NEM0NjMuNDYgNDguNTU2OCA0NjIuNTYxIDQ5Ljk1NzIgNDU5Ljc2MyA1MC4zNTcyTDQ0Ny42NzYgNTIuMTU3NkM0MzkuNDg0IDUzLjM1NzkgNDMyLjk5IDU4LjI1ODkgNDMyLjk5IDY3LjA2MDlaTTQ1Mi42NzEgNzEuOTYyQzQ0OC4zNzUgNzEuOTYyIDQ0Ni4yNzYgNjkuMTYxNCA0NDYuMjc2IDY2LjI2MDhDNDQ2LjI3NiA2Mi40NTk5IDQ0OC45NzMgNjAuNTU5NCA0NTIuMzcxIDYwLjA1OTRMNDYzLjQ2IDU4LjM1OVY2MC41NTk0QzQ2My40NiA2OS4yNjE1IDQ1OC4yNjUgNzEuOTYyIDQ1Mi42NzEgNzEuOTYyWiIvPiYjeGE7PHBhdGggZmlsbD0iIzFGMUYxRiIgZD0iTTQ4NS42NDUgNjYuNzYwOEM0ODYuMjQzIDcyLjM2MjEgNDkxLjMzOSA4MS45NjQyIDUwNi4xMjQgODEuOTY0MkM1MTkuMDEyIDgxLjk2NDIgNTI1LjIwNSA3My43NjI0IDUyNS4yMDUgNjUuNzYwN0M1MjUuMjA1IDU4LjU1OSA1MjAuMzExIDUyLjY1NzcgNTEwLjYyIDUwLjY1NzFMNTAzLjYyNiA0OS4xNTY5QzUwMC45MjkgNDguNjU2OCA0OTkuMTMyIDQ3LjE1NjUgNDk5LjEzMiA0NC43NTU5QzQ5OS4xMzIgNDEuOTU1MiA1MDEuOTI4IDM5Ljg1NDkgNTA1LjQyNSAzOS44NTQ5QzUxMS4wMjEgMzkuODU0OSA1MTMuMTE4IDQzLjU1NTYgNTEzLjUxOSA0Ni40NTY0TDUyNC42MDcgNDMuOTU1OEM1MjQuMDA3IDM4LjY1NDYgNTE5LjMxMiAyOS43NTI3IDUwNS4zMjYgMjkuNzUyN0M0OTQuNzM1IDI5Ljc1MjcgNDg2Ljk0NCAzNy4wNTQzIDQ4Ni45NDQgNDUuODU2MUM0ODYuOTQ0IDUyLjc1NzYgNDkxLjIzOCA1OC40NTkxIDUwMC43MyA2MC41NTk0TDUwNy4yMjQgNjIuMDU5OEM1MTEuMDIxIDYyLjg1OTkgNTEyLjUxOSA2NC42NjA1IDUxMi41MTkgNjYuODYwOUM1MTIuNTE5IDY5LjQ2MTUgNTEwLjQyMSA3MS43NjIgNTA2LjAyNSA3MS43NjJDNTAwLjIzIDcxLjc2MiA0OTcuMzM0IDY4LjE2MTEgNDk3LjAzNCA2NC4yNjAyTDQ4NS42NDUgNjYuNzYwOFoiLz4mI3hhOzxwYXRoIGZpbGw9IiMxRjFGMUYiIGQ9Ik01NDUuMzg1IDUwLjI1NzFDNTQ1LjY4NSA0NS43NTYyIDU0OS40ODIgNDAuNTU0OSA1NTYuMzc1IDQwLjU1NDlDNTYzLjk2NyA0MC41NTQ5IDU2Ny4xNjUgNDUuMzU2MSA1NjcuMzY1IDUwLjI1NzFINTQ1LjM4NVpNNTY4LjY2NCA2My4wNjAxQzU2Ny4wNjUgNjcuNDYwOSA1NjMuNjY4IDcwLjU2MTcgNTU3LjQ3NCA3MC41NjE3QzU1MC44OCA3MC41NjE3IDU0NS4zODUgNjUuODYwNiA1NDUuMDg3IDU5LjM1OTNINTgwLjI1MkM1ODAuMjUyIDU5LjE1OSA1ODAuNDUxIDU3LjE1ODcgNTgwLjQ1MSA1NS4yNTgyQzU4MC40NTEgMzkuNDU0NyA1NzEuMzYxIDI5Ljc1MjcgNTU2LjE3NSAyOS43NTI3QzU0My41ODggMjkuNzUyNyA1MzEuOTk4IDM5Ljk1NDggNTMxLjk5OCA1NS42NTg0QzUzMS45OTggNzIuMjYyIDU0My44ODYgODEuOTY0MiA1NTcuMzc0IDgxLjk2NDJDNTY5LjQ2MiA4MS45NjQyIDU3Ny4yNTUgNzQuODYyNiA1NzkuNzUzIDY2LjM2MDdMNTY4LjY2NCA2My4wNjAxWiIvPiYjeGE7PHBhdGggZmlsbD0idXJsKCNwYWludDBfbGluZWFyKSIgZD0iTTYzLjcwNzYgMTEwLjI4NEM2MC44NDgxIDExMy44ODUgNTUuMDUwMiAxMTEuOTEyIDU0Ljk4MTMgMTA3LjMxNEw1My45NzM4IDQwLjA2MjdMOTkuMTkzNSA0MC4wNjI3QzEwNy4zODQgNDAuMDYyNyAxMTEuOTUyIDQ5LjUyMjggMTA2Ljg1OSA1NS45Mzc0TDYzLjcwNzYgMTEwLjI4NFoiLz4mI3hhOzxwYXRoIGZpbGwtb3BhY2l0eT0iMC4yIiBmaWxsPSJ1cmwoI3BhaW50MV9saW5lYXIpIiBkPSJNNjMuNzA3NiAxMTAuMjg0QzYwLjg0ODEgMTEzLjg4NSA1NS4wNTAyIDExMS45MTIgNTQuOTgxMyAxMDcuMzE0TDUzLjk3MzggNDAuMDYyN0w5OS4xOTM1IDQwLjA2MjdDMTA3LjM4NCA0MC4wNjI3IDExMS45NTIgNDkuNTIyOCAxMDYuODU5IDU1LjkzNzRMNjMuNzA3NiAxMTAuMjg0WiIvPiYjeGE7PHBhdGggZmlsbD0iIzNFQ0Y4RSIgZD0iTTQ1LjMxNyAyLjA3MTAzQzQ4LjE3NjUgLTEuNTMwMzcgNTMuOTc0NSAwLjQ0MjkzNyA1NC4wNDM0IDUuMDQxTDU0LjQ4NDkgNzIuMjkyMkg5LjgzMTEzQzEuNjQwMzggNzIuMjkyMiAtMi45Mjc3NSA2Mi44MzIxIDIuMTY1NSA1Ni40MTc1TDQ1LjMxNyAyLjA3MTAzWiIvPiYjeGE7PGRlZnM+JiN4YTs8bGluZWFyR3JhZGllbnQgZ3JhZGllbnRVbml0cz0idXNlclNwYWNlT25Vc2UiIHkyPSI3MS44Mjk1IiB4Mj0iOTQuMTYzNSIgeTE9IjU0Ljk3NCIgeDE9IjUzLjk3MzgiIGlkPSJwYWludDBfbGluZWFyIj4mI3hhOzxzdG9wIHN0b3AtY29sb3I9IiMyNDkzNjEiLz4mI3hhOzxzdG9wIHN0b3AtY29sb3I9IiMzRUNGOEUiIG9mZnNldD0iMSIvPiYjeGE7PC9saW5lYXJHcmFkaWVudD4mI3hhOzxsaW5lYXJHcmFkaWVudCBncmFkaWVudFVuaXRzPSJ1c2VyU3BhY2VPblVzZSIgeTI9IjY1LjA4MDYiIHgyPSI1NC40ODQ0IiB5MT0iMzAuNTc4IiB4MT0iMzYuMTU1OCIgaWQ9InBhaW50MV9saW5lYXIiPiYjeGE7PHN0b3AvPiYjeGE7PHN0b3Agc3RvcC1vcGFjaXR5PSIwIiBvZmZzZXQ9IjEiLz4mI3hhOzwvbGluZWFyR3JhZGllbnQ+JiN4YTs8L2RlZnM+JiN4YTs8L3N2Zz4=;" vertex="1" parent="1">
          <mxGeometry x="523.25" y="368.96" width="113.5" height="22.07" as="geometry" />
        </mxCell>
        <mxCell id="5hUDQQry_mjtpb-gvesq-46" value="" style="shape=image;verticalLabelPosition=bottom;labelBackgroundColor=default;verticalAlign=top;aspect=fixed;imageAspect=0;image=data:image/svg+xml,PHN2ZyB4bWxucz0iaHR0cDovL3d3dy53My5vcmcvMjAwMC9zdmciIHZpZXdCb3g9IjAgMCAyNzUuOTcgNzIiIGhlaWdodD0iNzIiIHdpZHRoPSIyNzUuOTciIGlkPSJMb2dvcyI+PGRlZnM+PHN0eWxlPi5jbHMtMXtmaWxsOiM3YjQyYmM7ZmlsbC1ydWxlOmV2ZW5vZGQ7fS5jbHMtMSwuY2xzLTJ7c3Ryb2tlLXdpZHRoOjBweDt9LmNscy0ye2ZpbGw6IzAwMDt9PC9zdHlsZT48L2RlZnM+PHBhdGggZD0iTTMzLjI5LDE3LjUxbDE1LjUsOXYxOGwtMTUuNS05di0xOFoiIGNsYXNzPSJjbHMtMSIvPjxwYXRoIGQ9Ik01MC40OSwyNi41MXYxOGwxNS41LTl2LTE4bC0xNS41LDlaIiBjbGFzcz0iY2xzLTEiLz48cGF0aCBkPSJNMTUuOTksNy41MXYxOGwxNS41LDl2LTE4TDE1Ljk5LDcuNTFaIiBjbGFzcz0iY2xzLTEiLz48cGF0aCBkPSJNMzMuMjksNTUuNTFsMTUuNSw5di0xOGwtMTUuNS05djE4WiIgY2xhc3M9ImNscy0xIi8+PHBhdGggZD0iTTkyLjc3LDI3LjQ3aC04Ljl2LTQuNTNoMjMuMjJ2NC41M2gtOC45djIzLjU0aC01LjQxdi0yMy41NFoiIGNsYXNzPSJjbHMtMiIvPjxwYXRoIGQ9Ik0xMDUuMzIsNDAuNzljMC02LjM0LDQuMjUtMTAuNjcsOS45OC0xMC42N3MxMC4wMyw0LjA5LDEwLjAzLDEwLjIzdjEuOTJoLTE0Ljg4Yy4yOCwzLjA1LDIuMDUsNS4yMSw1LjA1LDUuMjEsMi4zMywwLDMuNjEtMS4wNCw0LjM3LTIuOTdsNC44MS44Yy0xLjEyLDMuNjktNC4wMSw2LjE4LTkuMTgsNi4xOC01Ljk0LDAtMTAuMTktNC40OS0xMC4xOS0xMC43MVpNMTEwLjUzLDM4Ljc0aDkuNThjLS4zNi0yLjkzLTIuMDgtNC42MS00LjgxLTQuNjEtMi40OSwwLTQuMzMsMS43Mi00Ljc3LDQuNjFaIiBjbGFzcz0iY2xzLTIiLz48cGF0aCBkPSJNMTI4Ljc0LDMwLjZoNC44MXYuOGMwLDEuMDgtLjA0LDEuOTYtLjM2LDMuNjFsLjQ4LjEyYy43Ni0yLjY5LDIuMTctNC41Myw1LjQ1LTQuNTNoMS40OHY1LjA1aC0yLjEyYy0yLjkzLDAtNC41MywxLjc2LTQuNTMsNS4wMXYxMC4zNWgtNS4yMXYtMjAuNDFaIiBjbGFzcz0iY2xzLTIiLz48cGF0aCBkPSJNMTQzLjA1LDMwLjZoNC44MXYuOGMwLDEuMDgtLjA0LDEuOTYtLjM2LDMuNjFsLjQ4LjEyYy43Ni0yLjY5LDIuMTctNC41Myw1LjQ1LTQuNTNoMS40OHY1LjA1aC0yLjEyYy0yLjkzLDAtNC41MywxLjc2LTQuNTMsNS4wMXYxMC4zNWgtNS4yMXYtMjAuNDFaIiBjbGFzcz0iY2xzLTIiLz48cGF0aCBkPSJNMTU1LjUyLDQ1LjU2YzAtNC4yMSwyLjk3LTUuNjEsNi41OC02LjQ2bDYuMS0xLjR2LS40OGMwLTIuMDQtMS4zMi0zLjMzLTMuNDUtMy4zM3MtMy4zNywxLjE2LTMuNzcsMy4wOWwtNC41Ny0uNTJjLjY4LTMuODUsMy45My02LjM0LDguNTQtNi4zNCw1LjA5LDAsOC40MiwzLjIxLDguNDIsNy45djguMjJjMCwuNTIuMTYuNjguNTIuNjhoMS4xMnY0LjA5aC0zLjEzYy0xLjk2LDAtMi44NS0uNjQtMi44NS0yLjI1LDAtLjQ4LjA4LTEuMDQuMjgtMS43NmwtLjQ0LS4xNmMtMS40NCwzLjEzLTMuNTcsNC40OS02LjU4LDQuNDktNC4xMywwLTYuNzgtMi4yOS02Ljc4LTUuNzdaTTE2My42Niw0Ny41NmMyLjY1LDAsNC41My0xLjkyLDQuNTMtNC45N3YtMS42bC00LjM3LDEuMDRjLTIuMjEuNTItMy4xMywxLjI4LTMuMTMsMi45N3MxLjE2LDIuNTcsMi45NywyLjU3WiIgY2xhc3M9ImNscy0yIi8+PHBhdGggZD0iTTE3OS44NiwzNC43M2gtMy42MXYtNC4xM2gzLjYxdi0zLjEzYzAtMy42OSwxLjc2LTUuMzMsNS44NS01LjMzaDQuNTd2NC4xM2gtMy42OWMtMS4xMiwwLTEuNi41Mi0xLjYsMS44djIuNTNoNC43M3Y0LjEzaC00LjY1djE2LjI4aC01LjIxdi0xNi4yOFoiIGNsYXNzPSJjbHMtMiIvPjxwYXRoIGQ9Ik0xOTAuODksNDAuNzljMC02LjIyLDQuMzctMTAuNjcsMTAuNDMtMTAuNjdzMTAuNDMsNC40NSwxMC40MywxMC42Ny00LjM3LDEwLjcxLTEwLjQzLDEwLjcxLTEwLjQzLTQuNDktMTAuNDMtMTAuNzFaTTIwNi41Myw0MC43OWMwLTMuODUtMi4wNS02LjQyLTUuMjEtNi40MnMtNS4yMSwyLjU3LTUuMjEsNi40MiwyLjA5LDYuNDYsNS4yMSw2LjQ2LDUuMjEtMi41Nyw1LjIxLTYuNDZaIiBjbGFzcz0iY2xzLTIiLz48cGF0aCBkPSJNMjE1LjAzLDMwLjZoNC44MXYuOGMwLDEuMDgtLjA0LDEuOTYtLjM2LDMuNjFsLjQ4LjEyYy43Ni0yLjY5LDIuMTctNC41Myw1LjQ1LTQuNTNoMS40OHY1LjA1aC0yLjEyYy0yLjkzLDAtNC41MywxLjc2LTQuNTMsNS4wMXYxMC4zNWgtNS4yMXYtMjAuNDFaIiBjbGFzcz0iY2xzLTIiLz48cGF0aCBkPSJNMjI5LjM1LDMwLjZoNS4wOXYuOGMwLDEuMDgtLjA4LDEuOC0uMzYsMy4yNWwuNDguMTZjMS4wNC0zLjE3LDMuMDUtNC42OSw2LjI2LTQuNjlzNS4zNywxLjQ4LDYuMTQsNC42MWguNDhjMS4wNC0zLjA5LDMuMDktNC42MSw2LjEtNC42MSw0LjI1LDAsNi40NiwyLjczLDYuNDYsNy40MnYxMy40N2gtNC44OXYtMTMuMjdjMC0yLjI1LTEuMTItMy40OS0zLjE3LTMuNDktMi42NSwwLTQuNDksMi4yMS00LjQ5LDUuNDV2MTEuMzFoLTUuMjF2LTEzLjI3YzAtMi4yNS0xLjEyLTMuNDktMy4xMy0zLjQ5LTIuNjUsMC00LjUzLDIuMjEtNC41Myw1LjQ1djExLjMxaC01LjIxdi0yMC40MVoiIGNsYXNzPSJjbHMtMiIvPjwvc3ZnPg==;imageBackground=default;imageBorder=none;" vertex="1" parent="1">
          <mxGeometry x="8.71" y="150" width="143" height="37.3" as="geometry" />
        </mxCell>
        <mxCell id="5hUDQQry_mjtpb-gvesq-47" value="" style="shape=image;verticalLabelPosition=bottom;labelBackgroundColor=default;verticalAlign=top;aspect=fixed;imageAspect=0;image=data:image/svg+xml,PHN2ZyB4bWxucz0iaHR0cDovL3d3dy53My5vcmcvMjAwMC9zdmciIGZpbGw9IiNlMTAwOTgiIHZpZXdCb3g9IjAgMCAzNjcgMTAwIj48c3R5bGU+c3Zne2ZpbGw6Y29sb3IoZGlzcGxheS1wMyAwLjg4MjQgMCAwLjU5NjEpO308L3N0eWxlPjxwYXRoIGQ9Ik01MCA2LjkwMzA4TDg3LjMyMyAyOC40NTE1VjcxLjU0ODRMNTAgOTMuMDk2OEwxMi42NzcgNzEuNTQ4NFYyOC40NTE1TDUwIDYuOTAzMDhaTTE2Ljg2NDcgMzAuODY5M1Y2Mi41MjUxTDQ0LjI3OTUgMTUuMDQxNEwxNi44NjQ3IDMwLjg2OTNaTTUwIDEzLjUwODZMMTguMzk3NSA2OC4yNDU3SDgxLjYwMjVMNTAgMTMuNTA4NlpNNzcuNDE0OCA3Mi40MzM0SDIyLjU4NTJMNTAgODguMjYxM0w3Ny40MTQ4IDcyLjQzMzRaTTgzLjEzNTMgNjIuNTI1MUw1NS43MjA1IDE1LjA0MTRMODMuMTM1MyAzMC44NjkzVjYyLjUyNTFaIiBjbGlwLXJ1bGU9ImV2ZW5vZGQiIGZpbGwtcnVsZT0iZXZlbm9kZCIvPjxjaXJjbGUgcj0iOC44MiIgY3k9IjkuMzIwOSIgY3g9IjUwIi8+PGNpcmNsZSByPSI4LjgyIiBjeT0iMjkuNjYwNSIgY3g9Ijg1LjIyOTIiLz48Y2lyY2xlIHI9IjguODIiIGN5PSI3MC4zMzk2IiBjeD0iODUuMjI5MiIvPjxjaXJjbGUgcj0iOC44MiIgY3k9IjkwLjY3OTEiIGN4PSI1MCIvPjxjaXJjbGUgcj0iOC44MiIgY3k9IjcwLjMzOTYiIGN4PSIxNC43NjU5Ii8+PGNpcmNsZSByPSI4LjgyIiBjeT0iMjkuNjYwNSIgY3g9IjE0Ljc2NTkiLz48cGF0aCBkPSJNMTM4Ljg3NSA3MS42MjVDMTMzLjY2NyA3MS42MjUgMTI5LjYyNSA3MC4xMjUgMTI2Ljc1IDY3LjEyNUMxMjMuODc1IDY0LjEyNSAxMjIuMzU0IDYwLjEwNDIgMTIyLjE4OCA1NS4wNjI1QzEyMi4xNDYgNTMuODEyNSAxMjIuMTI1IDUxLjgzMzMgMTIyLjEyNSA0OS4xMjVDMTIyLjEyNSA0Ni40MTY3IDEyMi4xNDYgNDQuNDM3NSAxMjIuMTg4IDQzLjE4NzVDMTIyLjM1NCAzOC4xNDU4IDEyMy44NzUgMzQuMTI1IDEyNi43NSAzMS4xMjVDMTI5LjYyNSAyOC4xMjUgMTMzLjY2NyAyNi42MjUgMTM4Ljg3NSAyNi42MjVDMTQyLjQxNyAyNi42MjUgMTQ1LjM5NiAyNy4yOTE3IDE0Ny44MTMgMjguNjI1QzE1MC4yMjkgMjkuOTU4MyAxNTIuMDIxIDMxLjU0MTcgMTUzLjE4OCAzMy4zNzVDMTU0LjM5NiAzNS4xNjY3IDE1NS4wNDIgMzYuNzcwOCAxNTUuMTI1IDM4LjE4NzVWMzguMzEyNUMxNTUuMTI1IDM4LjY0NTggMTU1IDM4LjkxNjcgMTU0Ljc1IDM5LjEyNUMxNTQuNSAzOS4zMzMzIDE1NC4xODggMzkuNDM3NSAxNTMuODEyIDM5LjQzNzVIMTUyLjQzOEMxNTIuMDYzIDM5LjQzNzUgMTUxLjc5MiAzOS4zNTQyIDE1MS42MjUgMzkuMTg3NUMxNTEuNDU4IDM5LjAyMDggMTUxLjI5MiAzOC42ODc1IDE1MS4xMjUgMzguMTg3NUMxNTAuNDE3IDM1Ljk3OTIgMTQ5LjA0MiAzNC4xMjUgMTQ3IDMyLjYyNUMxNDUgMzEuMTI1IDE0Mi4yOTIgMzAuMzc1IDEzOC44NzUgMzAuMzc1QzEzNSAzMC4zNzUgMTMxLjkzOCAzMS40Mzc1IDEyOS42ODggMzMuNTYyNUMxMjcuNDc5IDM1LjY4NzUgMTI2LjI5MiAzOSAxMjYuMTI1IDQzLjVDMTI2LjA4MyA0NC43NSAxMjYuMDYzIDQ2LjYyNSAxMjYuMDYzIDQ5LjEyNUMxMjYuMDYzIDUxLjYyNSAxMjYuMDgzIDUzLjUgMTI2LjEyNSA1NC43NUMxMjYuMjkyIDU5LjI1IDEyNy40NzkgNjIuNTYyNSAxMjkuNjg4IDY0LjY4NzVDMTMxLjkzOCA2Ni44MTI1IDEzNSA2Ny44NzUgMTM4Ljg3NSA2Ny44NzVDMTQyLjc1IDY3Ljg3NSAxNDUuODc1IDY2Ljc3MDggMTQ4LjI1IDY0LjU2MjVDMTUwLjYyNSA2Mi4zNTQyIDE1MS44MTIgNTkuMDgzMyAxNTEuODEyIDU0Ljc1VjUxLjU2MjVIMTQwLjkzOEMxNDAuNTIxIDUxLjU2MjUgMTQwLjE4OCA1MS40Mzc1IDEzOS45MzggNTEuMTg3NUMxMzkuNjg4IDUwLjg5NTggMTM5LjU2MyA1MC41NDE3IDEzOS41NjMgNTAuMTI1VjQ5LjI1QzEzOS41NjMgNDguODMzMyAxMzkuNjg4IDQ4LjUgMTM5LjkzOCA0OC4yNUMxNDAuMTg4IDQ3Ljk1ODMgMTQwLjUyMSA0Ny44MTI1IDE0MC45MzggNDcuODEyNUgxNTQuMzEyQzE1NC43NzEgNDcuODEyNSAxNTUuMTI1IDQ3LjkzNzUgMTU1LjM3NSA0OC4xODc1QzE1NS42MjUgNDguNDM3NSAxNTUuNzUgNDguNzkxNyAxNTUuNzUgNDkuMjVWNTQuNzVDMTU1Ljc1IDU4LjA4MzMgMTU1LjA4MyA2MS4wMjA4IDE1My43NSA2My41NjI1QzE1Mi40MTcgNjYuMTA0MiAxNTAuNDc5IDY4LjA4MzMgMTQ3LjkzOCA2OS41QzE0NS4zOTYgNzAuOTE2NyAxNDIuMzc1IDcxLjYyNSAxMzguODc1IDcxLjYyNVoiLz48cGF0aCBkPSJNMTY1Ljk0MSA3MUMxNjUuNTI1IDcxIDE2NS4xOTEgNzAuODc1IDE2NC45NDEgNzAuNjI1QzE2NC42OTEgNzAuMzc1IDE2NC41NjYgNzAuMDQxNyAxNjQuNTY2IDY5LjYyNVYzOS45Mzc1QzE2NC41NjYgMzkuNTIwOCAxNjQuNjkxIDM5LjE4NzUgMTY0Ljk0MSAzOC45Mzc1QzE2NS4xOTEgMzguNjQ1OCAxNjUuNTI1IDM4LjUgMTY1Ljk0MSAzOC41SDE2Ni45NDFDMTY3LjM1OCAzOC41IDE2Ny42OTEgMzguNjQ1OCAxNjcuOTQxIDM4LjkzNzVDMTY4LjIzMyAzOS4xODc1IDE2OC4zNzkgMzkuNTIwOCAxNjguMzc5IDM5LjkzNzVWNDIuODEyNUMxNjkuODc5IDM5LjkzNzUgMTcyLjcxMiAzOC41IDE3Ni44NzkgMzguNUgxNzkuMTkxQzE3OS42MDggMzguNSAxNzkuOTQxIDM4LjYyNSAxODAuMTkxIDM4Ljg3NUMxODAuNDQxIDM5LjEyNSAxODAuNTY2IDM5LjQ1ODMgMTgwLjU2NiAzOS44NzVWNDAuNzVDMTgwLjU2NiA0MS4xNjY3IDE4MC40NDEgNDEuNSAxODAuMTkxIDQxLjc1QzE3OS45NDEgNDIgMTc5LjYwOCA0Mi4xMjUgMTc5LjE5MSA0Mi4xMjVIMTc2LjUwNEMxNzQuMDA0IDQyLjEyNSAxNzIuMDI1IDQyLjg1NDIgMTcwLjU2NiA0NC4zMTI1QzE2OS4xMDggNDUuNzcwOCAxNjguMzc5IDQ3Ljc1IDE2OC4zNzkgNTAuMjVWNjkuNjI1QzE2OC4zNzkgNzAuMDQxNyAxNjguMjMzIDcwLjM3NSAxNjcuOTQxIDcwLjYyNUMxNjcuNjkxIDcwLjg3NSAxNjcuMzU4IDcxIDE2Ni45NDEgNzFIMTY1Ljk0MVoiLz48cGF0aCBkPSJNMTk0LjU1NyA3MS42MjVDMTkyLjU1NyA3MS42MjUgMTkwLjcwMiA3MS4yMDgzIDE4OC45OTQgNzAuMzc1QzE4Ny4yODYgNjkuNTQxNyAxODUuOTExIDY4LjQxNjcgMTg0Ljg2OSA2N0MxODMuODY5IDY1LjU4MzMgMTgzLjM2OSA2NC4wMjA4IDE4My4zNjkgNjIuMzEyNUMxODMuMzY5IDU5LjU2MjUgMTg0LjQ3MyA1Ny4zMTI1IDE4Ni42ODIgNTUuNTYyNUMxODguOTMyIDUzLjgxMjUgMTkxLjk1MiA1Mi42ODc1IDE5NS43NDQgNTIuMTg3NUwyMDUuNjE5IDUwLjgxMjVWNDguNjI1QzIwNS42MTkgNDYuMzMzMyAyMDQuOTExIDQ0LjU4MzMgMjAzLjQ5NCA0My4zNzVDMjAyLjExOSA0Mi4xMjUgMTk5Ljk5NCA0MS41IDE5Ny4xMTkgNDEuNUMxOTQuOTk0IDQxLjUgMTkzLjI0NCA0MS45MTY3IDE5MS44NjkgNDIuNzVDMTkwLjUzNiA0My41ODMzIDE4OS42ODIgNDQuNTgzMyAxODkuMzA3IDQ1Ljc1QzE4OS4xNCA0Ni4yNSAxODguOTMyIDQ2LjYwNDIgMTg4LjY4MiA0Ni44MTI1QzE4OC40NzMgNDYuOTc5MiAxODguMTgyIDQ3LjA2MjUgMTg3LjgwNyA0Ny4wNjI1SDE4Ni45MzJDMTg2LjU1NyA0Ny4wNjI1IDE4Ni4yMjMgNDYuOTM3NSAxODUuOTMyIDQ2LjY4NzVDMTg1LjY4MiA0Ni4zOTU4IDE4NS41NTcgNDYuMDYyNSAxODUuNTU3IDQ1LjY4NzVDMTg1LjU1NyA0NC43NzA4IDE4NS45NzMgNDMuNzA4MyAxODYuODA3IDQyLjVDMTg3LjY0IDQxLjI1IDE4OC45MzIgNDAuMTY2NyAxOTAuNjgyIDM5LjI1QzE5Mi40MzIgMzguMzMzMyAxOTQuNTc3IDM3Ljg3NSAxOTcuMTE5IDM3Ljg3NUMyMDEuNTc3IDM3Ljg3NSAyMDQuNzQ0IDM4LjkzNzUgMjA2LjYxOSA0MS4wNjI1QzIwOC40OTQgNDMuMTg3NSAyMDkuNDMyIDQ1Ljc3MDggMjA5LjQzMiA0OC44MTI1VjY5LjYyNUMyMDkuNDMyIDcwLjA0MTcgMjA5LjMwNyA3MC4zNzUgMjA5LjA1NyA3MC42MjVDMjA4LjgwNyA3MC44NzUgMjA4LjQ3MyA3MSAyMDguMDU3IDcxSDIwNi45OTRDMjA2LjU3NyA3MSAyMDYuMjQ0IDcwLjg3NSAyMDUuOTk0IDcwLjYyNUMyMDUuNzQ0IDcwLjM3NSAyMDUuNjE5IDcwLjA0MTcgMjA1LjYxOSA2OS42MjVWNjYuNjg3NUMyMDQuNzAyIDY4LjA2MjUgMjAzLjM0OCA2OS4yMjkyIDIwMS41NTcgNzAuMTg3NUMxOTkuODA3IDcxLjE0NTggMTk3LjQ3MyA3MS42MjUgMTk0LjU1NyA3MS42MjVaTTE5NS4xODIgNjhDMTk4LjIyMyA2OCAyMDAuNzIzIDY3IDIwMi42ODIgNjVDMjA0LjY0IDYzIDIwNS42MTkgNjAuMTI1IDIwNS42MTkgNTYuMzc1VjU0LjI1TDE5Ny41NTcgNTUuMzc1QzE5NC4xNCA1NS44MzMzIDE5MS41NTcgNTYuNjI1IDE4OS44MDcgNTcuNzVDMTg4LjA1NyA1OC44NzUgMTg3LjE4MiA2MC4yOTE3IDE4Ny4xODIgNjJDMTg3LjE4MiA2My45MTY3IDE4Ny45NzMgNjUuMzk1OCAxODkuNTU3IDY2LjQzNzVDMTkxLjE4MiA2Ny40NzkyIDE5My4wNTcgNjggMTk1LjE4MiA2OFoiLz48cGF0aCBkPSJNMjIwLjc1MiA4Mi44NzVDMjIwLjMzNiA4Mi44NzUgMjIwLjAwMiA4Mi43NSAyMTkuNzUyIDgyLjVDMjE5LjUwMiA4Mi4yNSAyMTkuMzc3IDgxLjkxNjcgMjE5LjM3NyA4MS41VjM5Ljg3NUMyMTkuMzc3IDM5LjQ1ODMgMjE5LjUwMiAzOS4xMjUgMjE5Ljc1MiAzOC44NzVDMjIwLjAwMiAzOC42MjUgMjIwLjMzNiAzOC41IDIyMC43NTIgMzguNUgyMjEuODE1QzIyMi4yMzIgMzguNSAyMjIuNTY1IDM4LjYyNSAyMjIuODE1IDM4Ljg3NUMyMjMuMDY1IDM5LjEyNSAyMjMuMTkgMzkuNDU4MyAyMjMuMTkgMzkuODc1VjQyLjgxMjVDMjI1LjYwNyAzOS41MjA4IDIyOS4xMDcgMzcuODc1IDIzMy42OSAzNy44NzVDMjM4LjE5IDM3Ljg3NSAyNDEuNTAyIDM5LjMxMjUgMjQzLjYyNyA0Mi4xODc1QzI0NS43OTQgNDUuMDIwOCAyNDYuOTQgNDguNTIwOCAyNDcuMDY1IDUyLjY4NzVDMjQ3LjEwNyA1My4xMDQyIDI0Ny4xMjcgNTMuNzkxNyAyNDcuMTI3IDU0Ljc1QzI0Ny4xMjcgNTUuNzA4MyAyNDcuMTA3IDU2LjM5NTggMjQ3LjA2NSA1Ni44MTI1QzI0Ni45NCA2MC45NzkyIDI0NS43OTQgNjQuNSAyNDMuNjI3IDY3LjM3NUMyNDEuNTAyIDcwLjIwODMgMjM4LjE5IDcxLjYyNSAyMzMuNjkgNzEuNjI1QzIyOS4xNDggNzEuNjI1IDIyNS42NDggNjkuOTc5MiAyMjMuMTkgNjYuNjg3NVY4MS41QzIyMy4xOSA4MS45MTY3IDIyMy4wNjUgODIuMjUgMjIyLjgxNSA4Mi41QzIyMi41NjUgODIuNzUgMjIyLjIzMiA4Mi44NzUgMjIxLjgxNSA4Mi44NzVIMjIwLjc1MlpNMjMzLjMxNSA2OEMyMzYuNjkgNjggMjM5LjE0OCA2Ni45Mzc1IDI0MC42OSA2NC44MTI1QzI0Mi4yNzMgNjIuNjQ1OCAyNDMuMTI3IDU5Ljg3NSAyNDMuMjUyIDU2LjVDMjQzLjI5NCA1Ni4wODMzIDI0My4zMTUgNTUuNSAyNDMuMzE1IDU0Ljc1QzI0My4zMTUgNTAuODc1IDI0Mi41NjUgNDcuNzA4MyAyNDEuMDY1IDQ1LjI1QzIzOS41NjUgNDIuNzUgMjM2Ljk4MiA0MS41IDIzMy4zMTUgNDEuNUMyMzAuMDIzIDQxLjUgMjI3LjU0NCA0Mi42MDQyIDIyNS44NzcgNDQuODEyNUMyMjQuMjExIDQ2Ljk3OTIgMjIzLjMxNSA0OS41NDE3IDIyMy4xOSA1Mi41TDIyMy4xMjcgNTQuOTM3NUwyMjMuMTkgNTcuMzc1QzIyMy4yMzIgNTkuMTY2NyAyMjMuNjI3IDYwLjg3NSAyMjQuMzc3IDYyLjVDMjI1LjEyNyA2NC4wODMzIDIyNi4yNTIgNjUuMzk1OCAyMjcuNzUyIDY2LjQzNzVDMjI5LjI1MiA2Ny40NzkyIDIzMS4xMDcgNjggMjMzLjMxNSA2OFoiLz48cGF0aCBkPSJNMjU3LjA2OCA3MUMyNTYuNjUyIDcxIDI1Ni4zMTggNzAuODc1IDI1Ni4wNjggNzAuNjI1QzI1NS44MTggNzAuMzc1IDI1NS42OTMgNzAuMDQxNyAyNTUuNjkzIDY5LjYyNVYyOEMyNTUuNjkzIDI3LjU4MzMgMjU1LjgxOCAyNy4yNSAyNTYuMDY4IDI3QzI1Ni4zMTggMjYuNzUgMjU2LjY1MiAyNi42MjUgMjU3LjA2OCAyNi42MjVIMjU4LjEzMUMyNTguNTQ4IDI2LjYyNSAyNTguODgxIDI2Ljc1IDI1OS4xMzEgMjdDMjU5LjM4MSAyNy4yNSAyNTkuNTA2IDI3LjU4MzMgMjU5LjUwNiAyOFY0Mi44MTI1QzI2MC43NTYgNDEuMTg3NSAyNjIuMTczIDM5Ljk1ODMgMjYzLjc1NiAzOS4xMjVDMjY1LjM4MSAzOC4yOTE3IDI2Ny40NjQgMzcuODc1IDI3MC4wMDYgMzcuODc1QzI3NC4wODkgMzcuODc1IDI3Ny4yMzUgMzkuMTg3NSAyNzkuNDQzIDQxLjgxMjVDMjgxLjY1MiA0NC4zOTU4IDI4Mi43NTYgNDcuNzUgMjgyLjc1NiA1MS44NzVWNjkuNjI1QzI4Mi43NTYgNzAuMDQxNyAyODIuNjMxIDcwLjM3NSAyODIuMzgxIDcwLjYyNUMyODIuMTMxIDcwLjg3NSAyODEuNzk4IDcxIDI4MS4zODEgNzFIMjgwLjMxOEMyNzkuOTAyIDcxIDI3OS41NjggNzAuODc1IDI3OS4zMTggNzAuNjI1QzI3OS4wNjggNzAuMzc1IDI3OC45NDMgNzAuMDQxNyAyNzguOTQzIDY5LjYyNVY1Mi4xODc1QzI3OC45NDMgNDguODEyNSAyNzguMTEgNDYuMTg3NSAyNzYuNDQzIDQ0LjMxMjVDMjc0LjgxOCA0Mi40Mzc1IDI3Mi40NjQgNDEuNSAyNjkuMzgxIDQxLjVDMjY2LjM4MSA0MS41IDI2My45ODUgNDIuNDU4MyAyNjIuMTkzIDQ0LjM3NUMyNjAuNDAyIDQ2LjI1IDI1OS41MDYgNDguODU0MiAyNTkuNTA2IDUyLjE4NzVWNjkuNjI1QzI1OS41MDYgNzAuMDQxNyAyNTkuMzgxIDcwLjM3NSAyNTkuMTMxIDcwLjYyNUMyNTguODgxIDcwLjg3NSAyNTguNTQ4IDcxIDI1OC4xMzEgNzFIMjU3LjA2OFoiLz48cGF0aCBkPSJNMzIxLjY4MiA3NS4wNjI1QzMyMS4wNTcgNzUuMDYyNSAzMjAuMzkgNzQuNTgzMyAzMTkuNjgyIDczLjYyNUwzMTYuOTMyIDY5LjgxMjVDMzE0LjQzMiA3MS4wMjA4IDMxMS41MTUgNzEuNjI1IDMwOC4xODIgNzEuNjI1QzI5Ny40NzQgNzEuNjI1IDI5MS45NzQgNjUuODc1IDI5MS42ODIgNTQuMzc1QzI5MS42NCA1My4xMjUgMjkxLjYyIDUxLjM3NSAyOTEuNjIgNDkuMTI1QzI5MS42MiA0Ni44NzUgMjkxLjY0IDQ1LjEyNSAyOTEuNjgyIDQzLjg3NUMyOTEuODQ5IDM4LjIwODMgMjkzLjM5IDMzLjkxNjcgMjk2LjMwNyAzMUMyOTkuMjI0IDI4LjA4MzMgMzAzLjE4MiAyNi42MjUgMzA4LjE4MiAyNi42MjVDMzEzLjE4MiAyNi42MjUgMzE3LjE0IDI4LjA4MzMgMzIwLjA1NyAzMUMzMjIuOTc0IDMzLjkxNjcgMzI0LjUxNSAzOC4yMDgzIDMyNC42ODIgNDMuODc1QzMyNC43NjUgNDYuMzc1IDMyNC44MDcgNDguMTI1IDMyNC44MDcgNDkuMTI1QzMyNC44MDcgNTAuMTI1IDMyNC43NjUgNTEuODc1IDMyNC42ODIgNTQuMzc1QzMyNC40NzQgNjAuMzMzMyAzMjIuOTUzIDY0LjcwODMgMzIwLjEyIDY3LjVMMzI0LjEyIDczLjEyNUMzMjQuMjQ1IDczLjM3NSAzMjQuMzA3IDczLjYwNDIgMzI0LjMwNyA3My44MTI1QzMyNC4zMDcgNzQuMTQ1OCAzMjQuMTgyIDc0LjQzNzUgMzIzLjkzMiA3NC42ODc1QzMyMy42ODIgNzQuOTM3NSAzMjMuMzkgNzUuMDYyNSAzMjMuMDU3IDc1LjA2MjVIMzIxLjY4MlpNMzA4LjE4MiA2Ny44NzVDMzExLjkzMiA2Ny44NzUgMzE0LjkxMSA2Ni43NSAzMTcuMTIgNjQuNUMzMTkuMzcgNjIuMjA4MyAzMjAuNTc4IDU4LjcyOTIgMzIwLjc0NSA1NC4wNjI1QzMyMC44MjggNTEuNTYyNSAzMjAuODcgNDkuOTE2NyAzMjAuODcgNDkuMTI1QzMyMC44NyA0OC4zMzMzIDMyMC44MjggNDYuNjg3NSAzMjAuNzQ1IDQ0LjE4NzVDMzIwLjU3OCAzOS41MjA4IDMxOS4zNyAzNi4wNjI1IDMxNy4xMiAzMy44MTI1QzMxNC44NyAzMS41MjA4IDMxMS44OSAzMC4zNzUgMzA4LjE4MiAzMC4zNzVDMzA0LjQ3NCAzMC4zNzUgMzAxLjQ5NSAzMS41MjA4IDI5OS4yNDUgMzMuODEyNUMyOTYuOTk1IDM2LjA2MjUgMjk1Ljc4NiAzOS41MjA4IDI5NS42MiA0NC4xODc1QzI5NS41NzggNDUuNDM3NSAyOTUuNTU3IDQ3LjA4MzMgMjk1LjU1NyA0OS4xMjVDMjk1LjU1NyA1MS4xNjY3IDI5NS41NzggNTIuODEyNSAyOTUuNjIgNTQuMDYyNUMyOTUuNzg2IDU4LjcyOTIgMjk2Ljk3NCA2Mi4yMDgzIDI5OS4xODIgNjQuNUMzMDEuNDMyIDY2Ljc1IDMwNC40MzIgNjcuODc1IDMwOC4xODIgNjcuODc1WiIvPjxwYXRoIGQ9Ik0zMzYuMTI2IDcxQzMzNS43MSA3MSAzMzUuMzc2IDcwLjg3NSAzMzUuMTI2IDcwLjYyNUMzMzQuODc2IDcwLjM3NSAzMzQuNzUxIDcwLjA0MTcgMzM0Ljc1MSA2OS42MjVWMjguNjI1QzMzNC43NTEgMjguMjA4MyAzMzQuODc2IDI3Ljg3NSAzMzUuMTI2IDI3LjYyNUMzMzUuMzc2IDI3LjM3NSAzMzUuNzEgMjcuMjUgMzM2LjEyNiAyNy4yNUgzMzcuMzE0QzMzNy43MzEgMjcuMjUgMzM4LjA2NCAyNy4zNzUgMzM4LjMxNCAyNy42MjVDMzM4LjU2NCAyNy44NzUgMzM4LjY4OSAyOC4yMDgzIDMzOC42ODkgMjguNjI1VjY3LjI1SDM2MC4yNTFDMzYwLjcxIDY3LjI1IDM2MS4wNjQgNjcuMzc1IDM2MS4zMTQgNjcuNjI1QzM2MS41NjQgNjcuODc1IDM2MS42ODkgNjguMjI5MiAzNjEuNjg5IDY4LjY4NzVWNjkuNjI1QzM2MS42ODkgNzAuMDQxNyAzNjEuNTQzIDcwLjM3NSAzNjEuMjUxIDcwLjYyNUMzNjEuMDAxIDcwLjg3NSAzNjAuNjY4IDcxIDM2MC4yNTEgNzFIMzM2LjEyNloiLz48L3N2Zz4=;" vertex="1" parent="1">
          <mxGeometry x="208.29" y="310" width="97" height="26.43" as="geometry" />
        </mxCell>
        <mxCell id="5hUDQQry_mjtpb-gvesq-50" value="Hasura Action" style="rounded=0;whiteSpace=wrap;html=1;fillColor=none;strokeColor=none;" vertex="1" parent="1">
          <mxGeometry x="320" y="290" width="120" height="60" as="geometry" />
        </mxCell>
        <mxCell id="5hUDQQry_mjtpb-gvesq-52" value="" style="shape=image;verticalLabelPosition=bottom;labelBackgroundColor=default;verticalAlign=top;aspect=fixed;imageAspect=0;image=https://nordicapis.com/wp-content/uploads/logotype_nebula.png;" vertex="1" parent="1">
          <mxGeometry x="246.58" y="336.43000000000006" width="58.71" height="20.12" as="geometry" />
        </mxCell>
        <mxCell id="5hUDQQry_mjtpb-gvesq-53" value="" style="shape=image;verticalLabelPosition=bottom;labelBackgroundColor=default;verticalAlign=top;aspect=fixed;imageAspect=0;image=https://www.vectorlogo.zone/logos/nestjs/nestjs-ar21.svg;" vertex="1" parent="1">
          <mxGeometry x="410" y="183" width="94" height="47" as="geometry" />
        </mxCell>
        <mxCell id="5hUDQQry_mjtpb-gvesq-54" value="" style="shape=image;verticalLabelPosition=bottom;labelBackgroundColor=default;verticalAlign=top;aspect=fixed;imageAspect=0;image=https://upload.wikimedia.org/wikipedia/commons/thumb/4/41/LINE_logo.svg/1024px-LINE_logo.svg.png;" vertex="1" parent="1">
          <mxGeometry x="70" y="382.5" width="37.5" height="37.5" as="geometry" />
        </mxCell>
      </root>
    </mxGraphModel>
  </diagram>
</mxfile>
